<mxfile host="app.diagrams.net" agent="Mozilla/5.0 (Windows NT 10.0; Win64; x64) AppleWebKit/537.36 (KHTML, like Gecko) Chrome/138.0.0.0 Safari/537.36 Edg/138.0.0.0" version="27.2.0" pages="2">
  <diagram name="Page-1" id="6y5rHZnCX7g9TMkOTT5N">
    <mxGraphModel dx="3287" dy="1843" grid="1" gridSize="10" guides="1" tooltips="1" connect="1" arrows="1" fold="1" page="1" pageScale="1" pageWidth="850" pageHeight="1100" math="0" shadow="0">
      <root>
        <mxCell id="0" />
        <mxCell id="1" parent="0" />
        <mxCell id="4OtOSzDUsw7pKe0Kpmsl-1" value="&lt;p style=&quot;white-space-collapse: preserve;&quot; dir=&quot;auto&quot;&gt;Customer&lt;/p&gt;" style="whiteSpace=wrap;html=1;align=center;" parent="1" vertex="1">
          <mxGeometry x="220" y="-110" width="100" height="40" as="geometry" />
        </mxCell>
        <mxCell id="4OtOSzDUsw7pKe0Kpmsl-2" value="Product" style="whiteSpace=wrap;html=1;align=center;" parent="1" vertex="1">
          <mxGeometry x="-340" y="410" width="100" height="40" as="geometry" />
        </mxCell>
        <mxCell id="4OtOSzDUsw7pKe0Kpmsl-3" value="Sales" style="whiteSpace=wrap;html=1;align=center;" parent="1" vertex="1">
          <mxGeometry x="210" y="410" width="100" height="40" as="geometry" />
        </mxCell>
        <mxCell id="4OtOSzDUsw7pKe0Kpmsl-5" value="SalesItems" style="whiteSpace=wrap;html=1;align=center;" parent="1" vertex="1">
          <mxGeometry x="-40" y="100" width="100" height="40" as="geometry" />
        </mxCell>
        <mxCell id="4OtOSzDUsw7pKe0Kpmsl-6" value="Inventory" style="whiteSpace=wrap;html=1;align=center;" parent="1" vertex="1">
          <mxGeometry x="-340" y="780" width="100" height="40" as="geometry" />
        </mxCell>
        <mxCell id="4OtOSzDUsw7pKe0Kpmsl-7" value="Places" style="shape=rhombus;perimeter=rhombusPerimeter;whiteSpace=wrap;html=1;align=center;" parent="1" vertex="1">
          <mxGeometry x="210" y="120" width="120" height="60" as="geometry" />
        </mxCell>
        <mxCell id="4OtOSzDUsw7pKe0Kpmsl-11" value="" style="shape=link;html=1;rounded=0;entryX=0.5;entryY=1;entryDx=0;entryDy=0;exitX=0.594;exitY=0.009;exitDx=0;exitDy=0;exitPerimeter=0;" parent="1" source="4OtOSzDUsw7pKe0Kpmsl-3" target="4OtOSzDUsw7pKe0Kpmsl-7" edge="1">
          <mxGeometry relative="1" as="geometry">
            <mxPoint x="350" y="460" as="sourcePoint" />
            <mxPoint x="350" y="340" as="targetPoint" />
          </mxGeometry>
        </mxCell>
        <mxCell id="4OtOSzDUsw7pKe0Kpmsl-12" value="" style="resizable=0;html=1;whiteSpace=wrap;align=left;verticalAlign=bottom;" parent="4OtOSzDUsw7pKe0Kpmsl-11" connectable="0" vertex="1">
          <mxGeometry x="-1" relative="1" as="geometry" />
        </mxCell>
        <mxCell id="4OtOSzDUsw7pKe0Kpmsl-13" value="" style="resizable=0;html=1;whiteSpace=wrap;align=right;verticalAlign=bottom;" parent="4OtOSzDUsw7pKe0Kpmsl-11" connectable="0" vertex="1">
          <mxGeometry x="1" relative="1" as="geometry" />
        </mxCell>
        <mxCell id="4OtOSzDUsw7pKe0Kpmsl-14" value="1" style="text;strokeColor=none;fillColor=none;spacingLeft=4;spacingRight=4;overflow=hidden;rotatable=0;points=[[0,0.5],[1,0.5]];portConstraint=eastwest;fontSize=12;whiteSpace=wrap;html=1;" parent="1" vertex="1">
          <mxGeometry x="240" y="100" width="40" height="30" as="geometry" />
        </mxCell>
        <mxCell id="4OtOSzDUsw7pKe0Kpmsl-15" value="M" style="text;strokeColor=none;fillColor=none;spacingLeft=4;spacingRight=4;overflow=hidden;rotatable=0;points=[[0,0.5],[1,0.5]];portConstraint=eastwest;fontSize=12;whiteSpace=wrap;html=1;" parent="1" vertex="1">
          <mxGeometry x="240" y="170" width="40" height="30" as="geometry" />
        </mxCell>
        <mxCell id="4OtOSzDUsw7pKe0Kpmsl-16" value="Contains" style="shape=rhombus;perimeter=rhombusPerimeter;whiteSpace=wrap;html=1;align=center;" parent="1" vertex="1">
          <mxGeometry x="-230" y="90" width="120" height="60" as="geometry" />
        </mxCell>
        <mxCell id="4OtOSzDUsw7pKe0Kpmsl-17" value="" style="shape=link;html=1;rounded=0;entryX=0;entryY=0.5;entryDx=0;entryDy=0;" parent="1" source="4OtOSzDUsw7pKe0Kpmsl-16" target="4OtOSzDUsw7pKe0Kpmsl-5" edge="1">
          <mxGeometry relative="1" as="geometry">
            <mxPoint x="-370" y="160" as="sourcePoint" />
            <mxPoint x="-369" y="60" as="targetPoint" />
          </mxGeometry>
        </mxCell>
        <mxCell id="4OtOSzDUsw7pKe0Kpmsl-18" value="" style="resizable=0;html=1;whiteSpace=wrap;align=left;verticalAlign=bottom;" parent="4OtOSzDUsw7pKe0Kpmsl-17" connectable="0" vertex="1">
          <mxGeometry x="-1" relative="1" as="geometry" />
        </mxCell>
        <mxCell id="4OtOSzDUsw7pKe0Kpmsl-19" value="" style="resizable=0;html=1;whiteSpace=wrap;align=right;verticalAlign=bottom;" parent="4OtOSzDUsw7pKe0Kpmsl-17" connectable="0" vertex="1">
          <mxGeometry x="1" relative="1" as="geometry" />
        </mxCell>
        <mxCell id="4OtOSzDUsw7pKe0Kpmsl-23" value="1" style="text;strokeColor=none;fillColor=none;spacingLeft=4;spacingRight=4;overflow=hidden;rotatable=0;points=[[0,0.5],[1,0.5]];portConstraint=eastwest;fontSize=12;whiteSpace=wrap;html=1;" parent="1" vertex="1">
          <mxGeometry x="-170" y="150" width="40" height="30" as="geometry" />
        </mxCell>
        <mxCell id="4OtOSzDUsw7pKe0Kpmsl-24" value="M" style="text;strokeColor=none;fillColor=none;spacingLeft=4;spacingRight=4;overflow=hidden;rotatable=0;points=[[0,0.5],[1,0.5]];portConstraint=eastwest;fontSize=12;whiteSpace=wrap;html=1;" parent="1" vertex="1">
          <mxGeometry x="-120" y="90" width="40" height="30" as="geometry" />
        </mxCell>
        <mxCell id="4OtOSzDUsw7pKe0Kpmsl-25" value="Has" style="shape=rhombus;perimeter=rhombusPerimeter;whiteSpace=wrap;html=1;align=center;" parent="1" vertex="1">
          <mxGeometry x="-190" y="400" width="120" height="60" as="geometry" />
        </mxCell>
        <mxCell id="4OtOSzDUsw7pKe0Kpmsl-26" value="" style="shape=link;html=1;rounded=0;entryX=0.5;entryY=0;entryDx=0;entryDy=0;exitX=1;exitY=0.5;exitDx=0;exitDy=0;" parent="1" source="4OtOSzDUsw7pKe0Kpmsl-5" target="4OtOSzDUsw7pKe0Kpmsl-25" edge="1">
          <mxGeometry relative="1" as="geometry">
            <mxPoint x="-410" y="170" as="sourcePoint" />
            <mxPoint x="271" y="360" as="targetPoint" />
            <Array as="points">
              <mxPoint x="180" y="120" />
              <mxPoint x="180" y="40" />
              <mxPoint x="-350" y="40" />
              <mxPoint x="-350" y="280" />
              <mxPoint x="-220" y="280" />
              <mxPoint x="-220" y="340" />
              <mxPoint x="-130" y="340" />
            </Array>
          </mxGeometry>
        </mxCell>
        <mxCell id="4OtOSzDUsw7pKe0Kpmsl-27" value="" style="resizable=0;html=1;whiteSpace=wrap;align=left;verticalAlign=bottom;" parent="4OtOSzDUsw7pKe0Kpmsl-26" connectable="0" vertex="1">
          <mxGeometry x="-1" relative="1" as="geometry" />
        </mxCell>
        <mxCell id="4OtOSzDUsw7pKe0Kpmsl-28" value="" style="resizable=0;html=1;whiteSpace=wrap;align=right;verticalAlign=bottom;" parent="4OtOSzDUsw7pKe0Kpmsl-26" connectable="0" vertex="1">
          <mxGeometry x="1" relative="1" as="geometry" />
        </mxCell>
        <mxCell id="4OtOSzDUsw7pKe0Kpmsl-32" value="1" style="text;strokeColor=none;fillColor=none;spacingLeft=4;spacingRight=4;overflow=hidden;rotatable=0;points=[[0,0.5],[1,0.5]];portConstraint=eastwest;fontSize=12;whiteSpace=wrap;html=1;" parent="1" vertex="1">
          <mxGeometry x="-200" y="400" width="40" height="30" as="geometry" />
        </mxCell>
        <mxCell id="4OtOSzDUsw7pKe0Kpmsl-33" value="M" style="text;strokeColor=none;fillColor=none;spacingLeft=4;spacingRight=4;overflow=hidden;rotatable=0;points=[[0,0.5],[1,0.5]];portConstraint=eastwest;fontSize=12;whiteSpace=wrap;html=1;" parent="1" vertex="1">
          <mxGeometry x="-170" y="380" width="40" height="30" as="geometry" />
        </mxCell>
        <mxCell id="4OtOSzDUsw7pKe0Kpmsl-34" value="Has" style="shape=rhombus;perimeter=rhombusPerimeter;whiteSpace=wrap;html=1;align=center;" parent="1" vertex="1">
          <mxGeometry x="-350" y="580" width="120" height="60" as="geometry" />
        </mxCell>
        <mxCell id="4OtOSzDUsw7pKe0Kpmsl-35" value="" style="endArrow=none;html=1;rounded=0;entryX=0.5;entryY=1;entryDx=0;entryDy=0;" parent="1" source="4OtOSzDUsw7pKe0Kpmsl-6" target="4OtOSzDUsw7pKe0Kpmsl-34" edge="1">
          <mxGeometry width="50" height="50" relative="1" as="geometry">
            <mxPoint x="-340" y="940" as="sourcePoint" />
            <mxPoint x="-290" y="890" as="targetPoint" />
          </mxGeometry>
        </mxCell>
        <mxCell id="4OtOSzDUsw7pKe0Kpmsl-36" value="" style="shape=link;html=1;rounded=0;entryX=0.5;entryY=0;entryDx=0;entryDy=0;exitX=0.5;exitY=1;exitDx=0;exitDy=0;" parent="1" source="4OtOSzDUsw7pKe0Kpmsl-2" target="4OtOSzDUsw7pKe0Kpmsl-34" edge="1">
          <mxGeometry relative="1" as="geometry">
            <mxPoint x="300" y="710" as="sourcePoint" />
            <mxPoint x="370" y="710" as="targetPoint" />
          </mxGeometry>
        </mxCell>
        <mxCell id="4OtOSzDUsw7pKe0Kpmsl-37" value="" style="resizable=0;html=1;whiteSpace=wrap;align=left;verticalAlign=bottom;" parent="4OtOSzDUsw7pKe0Kpmsl-36" connectable="0" vertex="1">
          <mxGeometry x="-1" relative="1" as="geometry" />
        </mxCell>
        <mxCell id="4OtOSzDUsw7pKe0Kpmsl-38" value="" style="resizable=0;html=1;whiteSpace=wrap;align=right;verticalAlign=bottom;" parent="4OtOSzDUsw7pKe0Kpmsl-36" connectable="0" vertex="1">
          <mxGeometry x="1" relative="1" as="geometry" />
        </mxCell>
        <mxCell id="4OtOSzDUsw7pKe0Kpmsl-39" value="1" style="text;strokeColor=none;fillColor=none;spacingLeft=4;spacingRight=4;overflow=hidden;rotatable=0;points=[[0,0.5],[1,0.5]];portConstraint=eastwest;fontSize=12;whiteSpace=wrap;html=1;" parent="1" vertex="1">
          <mxGeometry x="-320" y="560" width="40" height="30" as="geometry" />
        </mxCell>
        <mxCell id="4OtOSzDUsw7pKe0Kpmsl-40" value="1" style="text;strokeColor=none;fillColor=none;spacingLeft=4;spacingRight=4;overflow=hidden;rotatable=0;points=[[0,0.5],[1,0.5]];portConstraint=eastwest;fontSize=12;whiteSpace=wrap;html=1;" parent="1" vertex="1">
          <mxGeometry x="-320" y="640" width="40" height="30" as="geometry" />
        </mxCell>
        <mxCell id="q5qDA-LX7BOF8YgOLXZg-3" value="Has" style="shape=rhombus;perimeter=rhombusPerimeter;whiteSpace=wrap;html=1;align=center;" parent="1" vertex="1">
          <mxGeometry x="-340" y="1007.5" width="120" height="60" as="geometry" />
        </mxCell>
        <mxCell id="q5qDA-LX7BOF8YgOLXZg-4" value="" style="shape=link;html=1;rounded=0;exitX=0.5;exitY=0;exitDx=0;exitDy=0;entryX=0.597;entryY=1.068;entryDx=0;entryDy=0;entryPerimeter=0;" parent="1" source="q5qDA-LX7BOF8YgOLXZg-3" target="4OtOSzDUsw7pKe0Kpmsl-6" edge="1">
          <mxGeometry relative="1" as="geometry">
            <mxPoint x="-170" y="660" as="sourcePoint" />
            <mxPoint x="120" y="950" as="targetPoint" />
          </mxGeometry>
        </mxCell>
        <mxCell id="q5qDA-LX7BOF8YgOLXZg-5" value="" style="resizable=0;html=1;whiteSpace=wrap;align=left;verticalAlign=bottom;" parent="q5qDA-LX7BOF8YgOLXZg-4" connectable="0" vertex="1">
          <mxGeometry x="-1" relative="1" as="geometry" />
        </mxCell>
        <mxCell id="q5qDA-LX7BOF8YgOLXZg-6" value="" style="resizable=0;html=1;whiteSpace=wrap;align=right;verticalAlign=bottom;" parent="q5qDA-LX7BOF8YgOLXZg-4" connectable="0" vertex="1">
          <mxGeometry x="1" relative="1" as="geometry" />
        </mxCell>
        <mxCell id="q5qDA-LX7BOF8YgOLXZg-8" value="1" style="text;strokeColor=none;fillColor=none;spacingLeft=4;spacingRight=4;overflow=hidden;rotatable=0;points=[[0,0.5],[1,0.5]];portConstraint=eastwest;fontSize=12;whiteSpace=wrap;html=1;" parent="1" vertex="1">
          <mxGeometry x="-310" y="982.5" width="40" height="30" as="geometry" />
        </mxCell>
        <mxCell id="q5qDA-LX7BOF8YgOLXZg-9" value="M" style="text;strokeColor=none;fillColor=none;spacingLeft=4;spacingRight=4;overflow=hidden;rotatable=0;points=[[0,0.5],[1,0.5]];portConstraint=eastwest;fontSize=12;whiteSpace=wrap;html=1;" parent="1" vertex="1">
          <mxGeometry x="-310" y="1062.5" width="40" height="30" as="geometry" />
        </mxCell>
        <mxCell id="q5qDA-LX7BOF8YgOLXZg-12" value="Has" style="shape=rhombus;perimeter=rhombusPerimeter;whiteSpace=wrap;html=1;align=center;" parent="1" vertex="1">
          <mxGeometry x="-940" y="1067.5" width="120" height="60" as="geometry" />
        </mxCell>
        <mxCell id="q5qDA-LX7BOF8YgOLXZg-13" value="" style="shape=link;html=1;rounded=0;exitX=0.5;exitY=0;exitDx=0;exitDy=0;entryX=0;entryY=0.5;entryDx=0;entryDy=0;" parent="1" source="q5qDA-LX7BOF8YgOLXZg-12" target="4OtOSzDUsw7pKe0Kpmsl-6" edge="1">
          <mxGeometry relative="1" as="geometry">
            <mxPoint x="-210" y="997" as="sourcePoint" />
            <mxPoint x="-210" y="930" as="targetPoint" />
            <Array as="points">
              <mxPoint x="-880" y="800" />
            </Array>
          </mxGeometry>
        </mxCell>
        <mxCell id="q5qDA-LX7BOF8YgOLXZg-14" value="" style="resizable=0;html=1;whiteSpace=wrap;align=left;verticalAlign=bottom;" parent="q5qDA-LX7BOF8YgOLXZg-13" connectable="0" vertex="1">
          <mxGeometry x="-1" relative="1" as="geometry" />
        </mxCell>
        <mxCell id="q5qDA-LX7BOF8YgOLXZg-15" value="" style="resizable=0;html=1;whiteSpace=wrap;align=right;verticalAlign=bottom;" parent="q5qDA-LX7BOF8YgOLXZg-13" connectable="0" vertex="1">
          <mxGeometry x="1" relative="1" as="geometry" />
        </mxCell>
        <mxCell id="q5qDA-LX7BOF8YgOLXZg-23" value="1" style="text;strokeColor=none;fillColor=none;spacingLeft=4;spacingRight=4;overflow=hidden;rotatable=0;points=[[0,0.5],[1,0.5]];portConstraint=eastwest;fontSize=12;whiteSpace=wrap;html=1;" parent="1" vertex="1">
          <mxGeometry x="-905" y="1042.5" width="40" height="30" as="geometry" />
        </mxCell>
        <mxCell id="q5qDA-LX7BOF8YgOLXZg-24" value="M" style="text;strokeColor=none;fillColor=none;spacingLeft=4;spacingRight=4;overflow=hidden;rotatable=0;points=[[0,0.5],[1,0.5]];portConstraint=eastwest;fontSize=12;whiteSpace=wrap;html=1;" parent="1" vertex="1">
          <mxGeometry x="-910" y="1122.5" width="40" height="30" as="geometry" />
        </mxCell>
        <mxCell id="q5qDA-LX7BOF8YgOLXZg-25" value="PaymentType" style="whiteSpace=wrap;html=1;align=center;" parent="1" vertex="1">
          <mxGeometry x="210" y="905" width="100" height="40" as="geometry" />
        </mxCell>
        <mxCell id="q5qDA-LX7BOF8YgOLXZg-26" value="PaidBy" style="shape=rhombus;perimeter=rhombusPerimeter;whiteSpace=wrap;html=1;align=center;" parent="1" vertex="1">
          <mxGeometry x="200" y="670" width="120" height="60" as="geometry" />
        </mxCell>
        <mxCell id="q5qDA-LX7BOF8YgOLXZg-27" value="" style="shape=link;html=1;rounded=0;entryX=0.5;entryY=0;entryDx=0;entryDy=0;exitX=0.5;exitY=1;exitDx=0;exitDy=0;" parent="1" source="4OtOSzDUsw7pKe0Kpmsl-3" target="q5qDA-LX7BOF8YgOLXZg-26" edge="1">
          <mxGeometry relative="1" as="geometry">
            <mxPoint x="410" y="520" as="sourcePoint" />
            <mxPoint x="500" y="520" as="targetPoint" />
          </mxGeometry>
        </mxCell>
        <mxCell id="q5qDA-LX7BOF8YgOLXZg-28" value="" style="resizable=0;html=1;whiteSpace=wrap;align=left;verticalAlign=bottom;" parent="q5qDA-LX7BOF8YgOLXZg-27" connectable="0" vertex="1">
          <mxGeometry x="-1" relative="1" as="geometry" />
        </mxCell>
        <mxCell id="q5qDA-LX7BOF8YgOLXZg-29" value="" style="resizable=0;html=1;whiteSpace=wrap;align=right;verticalAlign=bottom;" parent="q5qDA-LX7BOF8YgOLXZg-27" connectable="0" vertex="1">
          <mxGeometry x="1" relative="1" as="geometry" />
        </mxCell>
        <mxCell id="q5qDA-LX7BOF8YgOLXZg-30" value="" style="shape=link;html=1;rounded=0;entryX=0.5;entryY=0;entryDx=0;entryDy=0;exitX=0.5;exitY=1;exitDx=0;exitDy=0;" parent="1" source="q5qDA-LX7BOF8YgOLXZg-26" target="q5qDA-LX7BOF8YgOLXZg-25" edge="1">
          <mxGeometry relative="1" as="geometry">
            <mxPoint x="450" y="720" as="sourcePoint" />
            <mxPoint x="540" y="720" as="targetPoint" />
          </mxGeometry>
        </mxCell>
        <mxCell id="q5qDA-LX7BOF8YgOLXZg-31" value="" style="resizable=0;html=1;whiteSpace=wrap;align=left;verticalAlign=bottom;" parent="q5qDA-LX7BOF8YgOLXZg-30" connectable="0" vertex="1">
          <mxGeometry x="-1" relative="1" as="geometry" />
        </mxCell>
        <mxCell id="q5qDA-LX7BOF8YgOLXZg-32" value="" style="resizable=0;html=1;whiteSpace=wrap;align=right;verticalAlign=bottom;" parent="q5qDA-LX7BOF8YgOLXZg-30" connectable="0" vertex="1">
          <mxGeometry x="1" relative="1" as="geometry" />
        </mxCell>
        <mxCell id="q5qDA-LX7BOF8YgOLXZg-33" value="1" style="text;strokeColor=none;fillColor=none;spacingLeft=4;spacingRight=4;overflow=hidden;rotatable=0;points=[[0,0.5],[1,0.5]];portConstraint=eastwest;fontSize=12;whiteSpace=wrap;html=1;" parent="1" vertex="1">
          <mxGeometry x="230" y="640" width="40" height="30" as="geometry" />
        </mxCell>
        <mxCell id="q5qDA-LX7BOF8YgOLXZg-34" value="1" style="text;strokeColor=none;fillColor=none;spacingLeft=4;spacingRight=4;overflow=hidden;rotatable=0;points=[[0,0.5],[1,0.5]];portConstraint=eastwest;fontSize=12;whiteSpace=wrap;html=1;" parent="1" vertex="1">
          <mxGeometry x="230" y="735" width="40" height="30" as="geometry" />
        </mxCell>
        <mxCell id="q5qDA-LX7BOF8YgOLXZg-35" value="ProductCategory" style="whiteSpace=wrap;html=1;align=center;" parent="1" vertex="1">
          <mxGeometry x="-160" y="1237.5" width="110" height="40" as="geometry" />
        </mxCell>
        <mxCell id="q5qDA-LX7BOF8YgOLXZg-36" value="Has" style="shape=rhombus;perimeter=rhombusPerimeter;whiteSpace=wrap;html=1;align=center;" parent="1" vertex="1">
          <mxGeometry x="-170" y="1037.5" width="120" height="60" as="geometry" />
        </mxCell>
        <mxCell id="q5qDA-LX7BOF8YgOLXZg-37" value="" style="shape=link;html=1;rounded=0;exitX=0.5;exitY=0;exitDx=0;exitDy=0;entryX=1;entryY=0.5;entryDx=0;entryDy=0;" parent="1" source="q5qDA-LX7BOF8YgOLXZg-36" target="4OtOSzDUsw7pKe0Kpmsl-6" edge="1">
          <mxGeometry relative="1" as="geometry">
            <mxPoint x="-180" y="1097" as="sourcePoint" />
            <mxPoint x="-180" y="1030" as="targetPoint" />
            <Array as="points">
              <mxPoint x="-110" y="800" />
            </Array>
          </mxGeometry>
        </mxCell>
        <mxCell id="q5qDA-LX7BOF8YgOLXZg-38" value="" style="resizable=0;html=1;whiteSpace=wrap;align=left;verticalAlign=bottom;" parent="q5qDA-LX7BOF8YgOLXZg-37" connectable="0" vertex="1">
          <mxGeometry x="-1" relative="1" as="geometry" />
        </mxCell>
        <mxCell id="q5qDA-LX7BOF8YgOLXZg-39" value="" style="resizable=0;html=1;whiteSpace=wrap;align=right;verticalAlign=bottom;" parent="q5qDA-LX7BOF8YgOLXZg-37" connectable="0" vertex="1">
          <mxGeometry x="1" relative="1" as="geometry" />
        </mxCell>
        <mxCell id="q5qDA-LX7BOF8YgOLXZg-43" value="1" style="text;strokeColor=none;fillColor=none;spacingLeft=4;spacingRight=4;overflow=hidden;rotatable=0;points=[[0,0.5],[1,0.5]];portConstraint=eastwest;fontSize=12;whiteSpace=wrap;html=1;" parent="1" vertex="1">
          <mxGeometry x="-150" y="1012.5" width="40" height="30" as="geometry" />
        </mxCell>
        <mxCell id="q5qDA-LX7BOF8YgOLXZg-44" value="M" style="text;strokeColor=none;fillColor=none;spacingLeft=4;spacingRight=4;overflow=hidden;rotatable=0;points=[[0,0.5],[1,0.5]];portConstraint=eastwest;fontSize=12;whiteSpace=wrap;html=1;" parent="1" vertex="1">
          <mxGeometry x="-150" y="1097.5" width="40" height="30" as="geometry" />
        </mxCell>
        <mxCell id="q5qDA-LX7BOF8YgOLXZg-45" value="Promotions" style="whiteSpace=wrap;html=1;align=center;" parent="1" vertex="1">
          <mxGeometry x="-980" y="410" width="100" height="40" as="geometry" />
        </mxCell>
        <mxCell id="q5qDA-LX7BOF8YgOLXZg-46" value="contains" style="shape=rhombus;perimeter=rhombusPerimeter;whiteSpace=wrap;html=1;align=center;" parent="1" vertex="1">
          <mxGeometry x="-755" y="410" width="120" height="60" as="geometry" />
        </mxCell>
        <mxCell id="q5qDA-LX7BOF8YgOLXZg-47" value="" style="endArrow=none;html=1;rounded=0;entryX=1;entryY=0.75;entryDx=0;entryDy=0;exitX=0;exitY=0.5;exitDx=0;exitDy=0;" parent="1" source="q5qDA-LX7BOF8YgOLXZg-46" target="q5qDA-LX7BOF8YgOLXZg-45" edge="1">
          <mxGeometry width="50" height="50" relative="1" as="geometry">
            <mxPoint x="-560" y="440" as="sourcePoint" />
            <mxPoint x="-850" y="440" as="targetPoint" />
          </mxGeometry>
        </mxCell>
        <mxCell id="q5qDA-LX7BOF8YgOLXZg-51" value="N" style="text;strokeColor=none;fillColor=none;spacingLeft=4;spacingRight=4;overflow=hidden;rotatable=0;points=[[0,0.5],[1,0.5]];portConstraint=eastwest;fontSize=12;whiteSpace=wrap;html=1;" parent="1" vertex="1">
          <mxGeometry x="-630" y="400" width="40" height="30" as="geometry" />
        </mxCell>
        <mxCell id="q5qDA-LX7BOF8YgOLXZg-52" value="M" style="text;strokeColor=none;fillColor=none;spacingLeft=4;spacingRight=4;overflow=hidden;rotatable=0;points=[[0,0.5],[1,0.5]];portConstraint=eastwest;fontSize=12;whiteSpace=wrap;html=1;" parent="1" vertex="1">
          <mxGeometry x="-780" y="400" width="40" height="30" as="geometry" />
        </mxCell>
        <mxCell id="q5qDA-LX7BOF8YgOLXZg-53" value="Returnes" style="whiteSpace=wrap;html=1;align=center;" parent="1" vertex="1">
          <mxGeometry x="-530" y="-110" width="100" height="40" as="geometry" />
        </mxCell>
        <mxCell id="q5qDA-LX7BOF8YgOLXZg-54" value="Places" style="shape=rhombus;perimeter=rhombusPerimeter;whiteSpace=wrap;html=1;align=center;" parent="1" vertex="1">
          <mxGeometry x="-340" y="-120" width="120" height="60" as="geometry" />
        </mxCell>
        <mxCell id="q5qDA-LX7BOF8YgOLXZg-55" value="" style="endArrow=none;html=1;rounded=0;entryX=1;entryY=0.5;entryDx=0;entryDy=0;exitX=0;exitY=0.5;exitDx=0;exitDy=0;" parent="1" source="4OtOSzDUsw7pKe0Kpmsl-1" target="q5qDA-LX7BOF8YgOLXZg-54" edge="1">
          <mxGeometry width="50" height="50" relative="1" as="geometry">
            <mxPoint x="-110" y="240" as="sourcePoint" />
            <mxPoint x="-210" y="240" as="targetPoint" />
          </mxGeometry>
        </mxCell>
        <mxCell id="q5qDA-LX7BOF8YgOLXZg-56" value="" style="shape=link;html=1;rounded=0;entryX=1;entryY=0.5;entryDx=0;entryDy=0;exitX=0;exitY=0.5;exitDx=0;exitDy=0;" parent="1" source="q5qDA-LX7BOF8YgOLXZg-54" target="q5qDA-LX7BOF8YgOLXZg-53" edge="1">
          <mxGeometry relative="1" as="geometry">
            <mxPoint x="40" y="330" as="sourcePoint" />
            <mxPoint x="130" y="330" as="targetPoint" />
          </mxGeometry>
        </mxCell>
        <mxCell id="q5qDA-LX7BOF8YgOLXZg-57" value="" style="resizable=0;html=1;whiteSpace=wrap;align=left;verticalAlign=bottom;" parent="q5qDA-LX7BOF8YgOLXZg-56" connectable="0" vertex="1">
          <mxGeometry x="-1" relative="1" as="geometry" />
        </mxCell>
        <mxCell id="q5qDA-LX7BOF8YgOLXZg-58" value="" style="resizable=0;html=1;whiteSpace=wrap;align=right;verticalAlign=bottom;" parent="q5qDA-LX7BOF8YgOLXZg-56" connectable="0" vertex="1">
          <mxGeometry x="1" relative="1" as="geometry" />
        </mxCell>
        <mxCell id="q5qDA-LX7BOF8YgOLXZg-59" value="1" style="text;strokeColor=none;fillColor=none;spacingLeft=4;spacingRight=4;overflow=hidden;rotatable=0;points=[[0,0.5],[1,0.5]];portConstraint=eastwest;fontSize=12;whiteSpace=wrap;html=1;" parent="1" vertex="1">
          <mxGeometry x="-220" y="-120" width="40" height="30" as="geometry" />
        </mxCell>
        <mxCell id="q5qDA-LX7BOF8YgOLXZg-60" value="M" style="text;strokeColor=none;fillColor=none;spacingLeft=4;spacingRight=4;overflow=hidden;rotatable=0;points=[[0,0.5],[1,0.5]];portConstraint=eastwest;fontSize=12;whiteSpace=wrap;html=1;" parent="1" vertex="1">
          <mxGeometry x="-360" y="-120" width="40" height="30" as="geometry" />
        </mxCell>
        <mxCell id="q5qDA-LX7BOF8YgOLXZg-71" value="Shipments" style="whiteSpace=wrap;html=1;align=center;" parent="1" vertex="1">
          <mxGeometry x="790" y="730" width="100" height="40" as="geometry" />
        </mxCell>
        <mxCell id="q5qDA-LX7BOF8YgOLXZg-72" value="Ships to" style="shape=rhombus;perimeter=rhombusPerimeter;whiteSpace=wrap;html=1;align=center;" parent="1" vertex="1">
          <mxGeometry x="510" y="720" width="120" height="60" as="geometry" />
        </mxCell>
        <mxCell id="q5qDA-LX7BOF8YgOLXZg-73" value="Type" style="ellipse;whiteSpace=wrap;html=1;align=center;" parent="1" vertex="1">
          <mxGeometry x="290" y="270" width="100" height="40" as="geometry" />
        </mxCell>
        <mxCell id="q5qDA-LX7BOF8YgOLXZg-74" value="" style="endArrow=none;html=1;rounded=0;" parent="1" source="4OtOSzDUsw7pKe0Kpmsl-3" target="q5qDA-LX7BOF8YgOLXZg-73" edge="1">
          <mxGeometry width="50" height="50" relative="1" as="geometry">
            <mxPoint x="320" y="620" as="sourcePoint" />
            <mxPoint x="370" y="570" as="targetPoint" />
          </mxGeometry>
        </mxCell>
        <mxCell id="q5qDA-LX7BOF8YgOLXZg-75" value="" style="shape=link;html=1;rounded=0;exitX=0;exitY=0.5;exitDx=0;exitDy=0;entryX=1;entryY=0.5;entryDx=0;entryDy=0;" parent="1" source="q5qDA-LX7BOF8YgOLXZg-71" target="q5qDA-LX7BOF8YgOLXZg-72" edge="1">
          <mxGeometry relative="1" as="geometry">
            <mxPoint x="630" y="710" as="sourcePoint" />
            <mxPoint x="650" y="750" as="targetPoint" />
          </mxGeometry>
        </mxCell>
        <mxCell id="q5qDA-LX7BOF8YgOLXZg-76" value="" style="resizable=0;html=1;whiteSpace=wrap;align=left;verticalAlign=bottom;" parent="q5qDA-LX7BOF8YgOLXZg-75" connectable="0" vertex="1">
          <mxGeometry x="-1" relative="1" as="geometry" />
        </mxCell>
        <mxCell id="q5qDA-LX7BOF8YgOLXZg-77" value="" style="resizable=0;html=1;whiteSpace=wrap;align=right;verticalAlign=bottom;" parent="q5qDA-LX7BOF8YgOLXZg-75" connectable="0" vertex="1">
          <mxGeometry x="1" relative="1" as="geometry" />
        </mxCell>
        <mxCell id="q5qDA-LX7BOF8YgOLXZg-79" value="1" style="text;strokeColor=none;fillColor=none;spacingLeft=4;spacingRight=4;overflow=hidden;rotatable=0;points=[[0,0.5],[1,0.5]];portConstraint=eastwest;fontSize=12;whiteSpace=wrap;html=1;" parent="1" vertex="1">
          <mxGeometry x="510" y="710" width="40" height="30" as="geometry" />
        </mxCell>
        <mxCell id="q5qDA-LX7BOF8YgOLXZg-80" value="1" style="text;strokeColor=none;fillColor=none;spacingLeft=4;spacingRight=4;overflow=hidden;rotatable=0;points=[[0,0.5],[1,0.5]];portConstraint=eastwest;fontSize=12;whiteSpace=wrap;html=1;" parent="1" vertex="1">
          <mxGeometry x="620" y="710" width="40" height="30" as="geometry" />
        </mxCell>
        <mxCell id="q5qDA-LX7BOF8YgOLXZg-81" value="WishList" style="whiteSpace=wrap;html=1;align=center;" parent="1" vertex="1">
          <mxGeometry x="220" y="-600" width="100" height="40" as="geometry" />
        </mxCell>
        <mxCell id="q5qDA-LX7BOF8YgOLXZg-82" value="Has" style="shape=rhombus;perimeter=rhombusPerimeter;whiteSpace=wrap;html=1;align=center;" parent="1" vertex="1">
          <mxGeometry x="210" y="-480" width="120" height="60" as="geometry" />
        </mxCell>
        <mxCell id="q5qDA-LX7BOF8YgOLXZg-83" value="" style="endArrow=none;html=1;rounded=0;exitX=0.5;exitY=1;exitDx=0;exitDy=0;" parent="1" source="q5qDA-LX7BOF8YgOLXZg-82" target="4OtOSzDUsw7pKe0Kpmsl-1" edge="1">
          <mxGeometry width="50" height="50" relative="1" as="geometry">
            <mxPoint x="280" y="10" as="sourcePoint" />
            <mxPoint x="180" y="10" as="targetPoint" />
          </mxGeometry>
        </mxCell>
        <mxCell id="q5qDA-LX7BOF8YgOLXZg-84" value="" style="shape=link;html=1;rounded=0;entryX=0.5;entryY=0;entryDx=0;entryDy=0;exitX=0.5;exitY=1;exitDx=0;exitDy=0;" parent="1" source="q5qDA-LX7BOF8YgOLXZg-81" target="q5qDA-LX7BOF8YgOLXZg-82" edge="1">
          <mxGeometry relative="1" as="geometry">
            <mxPoint x="100" y="-210" as="sourcePoint" />
            <mxPoint x="10" y="-210" as="targetPoint" />
          </mxGeometry>
        </mxCell>
        <mxCell id="q5qDA-LX7BOF8YgOLXZg-85" value="" style="resizable=0;html=1;whiteSpace=wrap;align=left;verticalAlign=bottom;" parent="q5qDA-LX7BOF8YgOLXZg-84" connectable="0" vertex="1">
          <mxGeometry x="-1" relative="1" as="geometry" />
        </mxCell>
        <mxCell id="q5qDA-LX7BOF8YgOLXZg-86" value="" style="resizable=0;html=1;whiteSpace=wrap;align=right;verticalAlign=bottom;" parent="q5qDA-LX7BOF8YgOLXZg-84" connectable="0" vertex="1">
          <mxGeometry x="1" relative="1" as="geometry" />
        </mxCell>
        <mxCell id="q5qDA-LX7BOF8YgOLXZg-87" value="1" style="text;strokeColor=none;fillColor=none;spacingLeft=4;spacingRight=4;overflow=hidden;rotatable=0;points=[[0,0.5],[1,0.5]];portConstraint=eastwest;fontSize=12;whiteSpace=wrap;html=1;" parent="1" vertex="1">
          <mxGeometry x="280" y="-420" width="40" height="30" as="geometry" />
        </mxCell>
        <mxCell id="q5qDA-LX7BOF8YgOLXZg-88" value="1" style="text;strokeColor=none;fillColor=none;spacingLeft=4;spacingRight=4;overflow=hidden;rotatable=0;points=[[0,0.5],[1,0.5]];portConstraint=eastwest;fontSize=12;whiteSpace=wrap;html=1;" parent="1" vertex="1">
          <mxGeometry x="280" y="-500" width="40" height="30" as="geometry" />
        </mxCell>
        <mxCell id="q5qDA-LX7BOF8YgOLXZg-89" value="WishListItems" style="whiteSpace=wrap;html=1;align=center;" parent="1" vertex="1">
          <mxGeometry x="720" y="-600" width="150" height="40" as="geometry" />
        </mxCell>
        <mxCell id="q5qDA-LX7BOF8YgOLXZg-90" value="Has" style="shape=rhombus;perimeter=rhombusPerimeter;whiteSpace=wrap;html=1;align=center;" parent="1" vertex="1">
          <mxGeometry x="470" y="-610" width="120" height="60" as="geometry" />
        </mxCell>
        <mxCell id="q5qDA-LX7BOF8YgOLXZg-94" value="" style="shape=link;html=1;rounded=0;entryX=0;entryY=0.5;entryDx=0;entryDy=0;exitX=1;exitY=0.5;exitDx=0;exitDy=0;" parent="1" source="q5qDA-LX7BOF8YgOLXZg-90" target="q5qDA-LX7BOF8YgOLXZg-89" edge="1">
          <mxGeometry relative="1" as="geometry">
            <mxPoint x="520" y="-490" as="sourcePoint" />
            <mxPoint x="670" y="-490" as="targetPoint" />
          </mxGeometry>
        </mxCell>
        <mxCell id="q5qDA-LX7BOF8YgOLXZg-95" value="" style="resizable=0;html=1;whiteSpace=wrap;align=left;verticalAlign=bottom;" parent="q5qDA-LX7BOF8YgOLXZg-94" connectable="0" vertex="1">
          <mxGeometry x="-1" relative="1" as="geometry" />
        </mxCell>
        <mxCell id="q5qDA-LX7BOF8YgOLXZg-96" value="" style="resizable=0;html=1;whiteSpace=wrap;align=right;verticalAlign=bottom;" parent="q5qDA-LX7BOF8YgOLXZg-94" connectable="0" vertex="1">
          <mxGeometry x="1" relative="1" as="geometry" />
        </mxCell>
        <mxCell id="q5qDA-LX7BOF8YgOLXZg-97" value="1" style="text;strokeColor=none;fillColor=none;spacingLeft=4;spacingRight=4;overflow=hidden;rotatable=0;points=[[0,0.5],[1,0.5]];portConstraint=eastwest;fontSize=12;whiteSpace=wrap;html=1;" parent="1" vertex="1">
          <mxGeometry x="460" y="-610" width="40" height="30" as="geometry" />
        </mxCell>
        <mxCell id="q5qDA-LX7BOF8YgOLXZg-98" value="M" style="text;strokeColor=none;fillColor=none;spacingLeft=4;spacingRight=4;overflow=hidden;rotatable=0;points=[[0,0.5],[1,0.5]];portConstraint=eastwest;fontSize=12;whiteSpace=wrap;html=1;" parent="1" vertex="1">
          <mxGeometry x="590" y="-610" width="40" height="30" as="geometry" />
        </mxCell>
        <mxCell id="q5qDA-LX7BOF8YgOLXZg-99" value="DamagedInventory" style="whiteSpace=wrap;html=1;align=center;" parent="1" vertex="1">
          <mxGeometry x="-1110" y="691" width="130" height="40" as="geometry" />
        </mxCell>
        <mxCell id="q5qDA-LX7BOF8YgOLXZg-100" value="Removed" style="shape=rhombus;perimeter=rhombusPerimeter;whiteSpace=wrap;html=1;align=center;" parent="1" vertex="1">
          <mxGeometry x="-830" y="681" width="120" height="60" as="geometry" />
        </mxCell>
        <mxCell id="q5qDA-LX7BOF8YgOLXZg-101" value="" style="endArrow=none;html=1;rounded=0;exitX=0;exitY=0.25;exitDx=0;exitDy=0;" parent="1" source="4OtOSzDUsw7pKe0Kpmsl-6" target="q5qDA-LX7BOF8YgOLXZg-100" edge="1">
          <mxGeometry width="50" height="50" relative="1" as="geometry">
            <mxPoint x="-340" y="786" as="sourcePoint" />
            <mxPoint x="-710" y="711" as="targetPoint" />
            <Array as="points">
              <mxPoint x="-570" y="786" />
              <mxPoint x="-570" y="711" />
            </Array>
          </mxGeometry>
        </mxCell>
        <mxCell id="q5qDA-LX7BOF8YgOLXZg-102" value="" style="shape=link;html=1;rounded=0;exitX=1;exitY=0.5;exitDx=0;exitDy=0;entryX=0;entryY=0.5;entryDx=0;entryDy=0;" parent="1" source="q5qDA-LX7BOF8YgOLXZg-99" target="q5qDA-LX7BOF8YgOLXZg-100" edge="1">
          <mxGeometry relative="1" as="geometry">
            <mxPoint x="-310" y="1176" as="sourcePoint" />
            <mxPoint x="-310" y="1046" as="targetPoint" />
          </mxGeometry>
        </mxCell>
        <mxCell id="q5qDA-LX7BOF8YgOLXZg-103" value="" style="resizable=0;html=1;whiteSpace=wrap;align=left;verticalAlign=bottom;" parent="q5qDA-LX7BOF8YgOLXZg-102" connectable="0" vertex="1">
          <mxGeometry x="-1" relative="1" as="geometry" />
        </mxCell>
        <mxCell id="q5qDA-LX7BOF8YgOLXZg-104" value="" style="resizable=0;html=1;whiteSpace=wrap;align=right;verticalAlign=bottom;" parent="q5qDA-LX7BOF8YgOLXZg-102" connectable="0" vertex="1">
          <mxGeometry x="1" relative="1" as="geometry" />
        </mxCell>
        <mxCell id="q5qDA-LX7BOF8YgOLXZg-105" value="1" style="text;strokeColor=none;fillColor=none;spacingLeft=4;spacingRight=4;overflow=hidden;rotatable=0;points=[[0,0.5],[1,0.5]];portConstraint=eastwest;fontSize=12;whiteSpace=wrap;html=1;" parent="1" vertex="1">
          <mxGeometry x="-710" y="681" width="40" height="30" as="geometry" />
        </mxCell>
        <mxCell id="q5qDA-LX7BOF8YgOLXZg-106" value="1" style="text;strokeColor=none;fillColor=none;spacingLeft=4;spacingRight=4;overflow=hidden;rotatable=0;points=[[0,0.5],[1,0.5]];portConstraint=eastwest;fontSize=12;whiteSpace=wrap;html=1;" parent="1" vertex="1">
          <mxGeometry x="-850" y="681" width="40" height="30" as="geometry" />
        </mxCell>
        <mxCell id="eKEfsuG5E0t4RD1mJ9Iq-4" value="CustomerID" style="ellipse;whiteSpace=wrap;html=1;align=center;fontStyle=4;" parent="1" vertex="1">
          <mxGeometry x="90" y="-70" width="100" height="40" as="geometry" />
        </mxCell>
        <mxCell id="eKEfsuG5E0t4RD1mJ9Iq-5" value="" style="endArrow=none;html=1;rounded=0;" parent="1" source="4OtOSzDUsw7pKe0Kpmsl-1" target="eKEfsuG5E0t4RD1mJ9Iq-4" edge="1">
          <mxGeometry width="50" height="50" relative="1" as="geometry">
            <mxPoint x="320" y="40" as="sourcePoint" />
            <mxPoint x="370" y="-10" as="targetPoint" />
          </mxGeometry>
        </mxCell>
        <mxCell id="eKEfsuG5E0t4RD1mJ9Iq-6" value="Name" style="ellipse;whiteSpace=wrap;html=1;align=center;" parent="1" vertex="1">
          <mxGeometry x="370" y="-50" width="100" height="40" as="geometry" />
        </mxCell>
        <mxCell id="eKEfsuG5E0t4RD1mJ9Iq-8" value="" style="endArrow=none;html=1;rounded=0;" parent="1" source="4OtOSzDUsw7pKe0Kpmsl-1" target="eKEfsuG5E0t4RD1mJ9Iq-6" edge="1">
          <mxGeometry width="50" height="50" relative="1" as="geometry">
            <mxPoint x="470" y="75" as="sourcePoint" />
            <mxPoint x="529" y="50" as="targetPoint" />
          </mxGeometry>
        </mxCell>
        <mxCell id="eKEfsuG5E0t4RD1mJ9Iq-9" value="ContactNumber" style="ellipse;whiteSpace=wrap;html=1;align=center;" parent="1" vertex="1">
          <mxGeometry x="410" y="-110" width="120" height="40" as="geometry" />
        </mxCell>
        <mxCell id="eKEfsuG5E0t4RD1mJ9Iq-10" value="" style="endArrow=none;html=1;rounded=0;" parent="1" source="4OtOSzDUsw7pKe0Kpmsl-1" target="eKEfsuG5E0t4RD1mJ9Iq-9" edge="1">
          <mxGeometry width="50" height="50" relative="1" as="geometry">
            <mxPoint x="380" y="-15" as="sourcePoint" />
            <mxPoint x="439" y="-40" as="targetPoint" />
          </mxGeometry>
        </mxCell>
        <mxCell id="eKEfsuG5E0t4RD1mJ9Iq-11" value="Email" style="ellipse;whiteSpace=wrap;html=1;align=center;" parent="1" vertex="1">
          <mxGeometry x="120" y="-170" width="100" height="40" as="geometry" />
        </mxCell>
        <mxCell id="eKEfsuG5E0t4RD1mJ9Iq-12" value="" style="endArrow=none;html=1;rounded=0;" parent="1" source="4OtOSzDUsw7pKe0Kpmsl-1" target="eKEfsuG5E0t4RD1mJ9Iq-11" edge="1">
          <mxGeometry width="50" height="50" relative="1" as="geometry">
            <mxPoint x="440" as="sourcePoint" />
            <mxPoint x="562" y="11" as="targetPoint" />
          </mxGeometry>
        </mxCell>
        <mxCell id="eKEfsuG5E0t4RD1mJ9Iq-13" value="Address" style="ellipse;whiteSpace=wrap;html=1;align=center;" parent="1" vertex="1">
          <mxGeometry x="280" y="-180" width="100" height="40" as="geometry" />
        </mxCell>
        <mxCell id="eKEfsuG5E0t4RD1mJ9Iq-14" value="" style="endArrow=none;html=1;rounded=0;" parent="1" source="4OtOSzDUsw7pKe0Kpmsl-1" target="eKEfsuG5E0t4RD1mJ9Iq-13" edge="1">
          <mxGeometry width="50" height="50" relative="1" as="geometry">
            <mxPoint x="380" y="-70" as="sourcePoint" />
            <mxPoint x="502" y="-59" as="targetPoint" />
          </mxGeometry>
        </mxCell>
        <mxCell id="eKEfsuG5E0t4RD1mJ9Iq-15" value="SalesID" style="ellipse;whiteSpace=wrap;html=1;align=center;fontStyle=4;" parent="1" vertex="1">
          <mxGeometry x="560" y="400" width="100" height="40" as="geometry" />
        </mxCell>
        <mxCell id="eKEfsuG5E0t4RD1mJ9Iq-16" value="" style="endArrow=none;html=1;rounded=0;" parent="1" source="4OtOSzDUsw7pKe0Kpmsl-3" target="eKEfsuG5E0t4RD1mJ9Iq-15" edge="1">
          <mxGeometry width="50" height="50" relative="1" as="geometry">
            <mxPoint x="470" y="462" as="sourcePoint" />
            <mxPoint x="523" y="420" as="targetPoint" />
          </mxGeometry>
        </mxCell>
        <mxCell id="eKEfsuG5E0t4RD1mJ9Iq-17" value="Date" style="ellipse;whiteSpace=wrap;html=1;align=center;" parent="1" vertex="1">
          <mxGeometry x="350" y="330" width="100" height="40" as="geometry" />
        </mxCell>
        <mxCell id="eKEfsuG5E0t4RD1mJ9Iq-18" value="" style="endArrow=none;html=1;rounded=0;" parent="1" source="4OtOSzDUsw7pKe0Kpmsl-3" target="eKEfsuG5E0t4RD1mJ9Iq-17" edge="1">
          <mxGeometry width="50" height="50" relative="1" as="geometry">
            <mxPoint x="261" y="442" as="sourcePoint" />
            <mxPoint x="180" y="380" as="targetPoint" />
          </mxGeometry>
        </mxCell>
        <mxCell id="eKEfsuG5E0t4RD1mJ9Iq-19" value="" style="endArrow=none;html=1;rounded=0;" parent="1" source="4OtOSzDUsw7pKe0Kpmsl-3" target="eKEfsuG5E0t4RD1mJ9Iq-20" edge="1">
          <mxGeometry width="50" height="50" relative="1" as="geometry">
            <mxPoint x="561" y="552" as="sourcePoint" />
            <mxPoint x="480" y="490" as="targetPoint" />
          </mxGeometry>
        </mxCell>
        <mxCell id="eKEfsuG5E0t4RD1mJ9Iq-20" value="Time" style="ellipse;whiteSpace=wrap;html=1;align=center;" parent="1" vertex="1">
          <mxGeometry x="50" y="330" width="100" height="40" as="geometry" />
        </mxCell>
        <mxCell id="eKEfsuG5E0t4RD1mJ9Iq-21" value="NatTotal" style="ellipse;whiteSpace=wrap;html=1;align=center;" parent="1" vertex="1">
          <mxGeometry x="-40" y="460" width="100" height="40" as="geometry" />
        </mxCell>
        <mxCell id="eKEfsuG5E0t4RD1mJ9Iq-22" value="Balance" style="ellipse;whiteSpace=wrap;html=1;align=center;" parent="1" vertex="1">
          <mxGeometry x="120" y="535" width="100" height="40" as="geometry" />
        </mxCell>
        <mxCell id="eKEfsuG5E0t4RD1mJ9Iq-23" value="" style="endArrow=none;html=1;rounded=0;" parent="1" source="eKEfsuG5E0t4RD1mJ9Iq-21" target="4OtOSzDUsw7pKe0Kpmsl-3" edge="1">
          <mxGeometry width="50" height="50" relative="1" as="geometry">
            <mxPoint x="40" y="770" as="sourcePoint" />
            <mxPoint x="90" y="720" as="targetPoint" />
          </mxGeometry>
        </mxCell>
        <mxCell id="eKEfsuG5E0t4RD1mJ9Iq-24" value="" style="endArrow=none;html=1;rounded=0;" parent="1" source="eKEfsuG5E0t4RD1mJ9Iq-22" target="4OtOSzDUsw7pKe0Kpmsl-3" edge="1">
          <mxGeometry width="50" height="50" relative="1" as="geometry">
            <mxPoint x="140" y="750" as="sourcePoint" />
            <mxPoint x="190" y="700" as="targetPoint" />
          </mxGeometry>
        </mxCell>
        <mxCell id="eKEfsuG5E0t4RD1mJ9Iq-25" value="DiscountedAmount" style="ellipse;whiteSpace=wrap;html=1;align=center;" parent="1" vertex="1">
          <mxGeometry x="-40" y="520" width="145" height="40" as="geometry" />
        </mxCell>
        <mxCell id="eKEfsuG5E0t4RD1mJ9Iq-26" value="" style="endArrow=none;html=1;rounded=0;" parent="1" source="eKEfsuG5E0t4RD1mJ9Iq-25" target="4OtOSzDUsw7pKe0Kpmsl-3" edge="1">
          <mxGeometry width="50" height="50" relative="1" as="geometry">
            <mxPoint x="60" y="560" as="sourcePoint" />
            <mxPoint x="244" y="490" as="targetPoint" />
          </mxGeometry>
        </mxCell>
        <mxCell id="eKEfsuG5E0t4RD1mJ9Iq-27" value="GivenAmount" style="ellipse;whiteSpace=wrap;html=1;align=center;" parent="1" vertex="1">
          <mxGeometry x="390" y="485" width="100" height="40" as="geometry" />
        </mxCell>
        <mxCell id="eKEfsuG5E0t4RD1mJ9Iq-28" value="" style="endArrow=none;html=1;rounded=0;" parent="1" source="4OtOSzDUsw7pKe0Kpmsl-3" target="eKEfsuG5E0t4RD1mJ9Iq-27" edge="1">
          <mxGeometry width="50" height="50" relative="1" as="geometry">
            <mxPoint x="450" y="490" as="sourcePoint" />
            <mxPoint x="572" y="450" as="targetPoint" />
          </mxGeometry>
        </mxCell>
        <mxCell id="eKEfsuG5E0t4RD1mJ9Iq-29" value="ItemsCountPurchased" style="ellipse;whiteSpace=wrap;html=1;align=center;" parent="1" vertex="1">
          <mxGeometry x="470" y="350" width="160" height="40" as="geometry" />
        </mxCell>
        <mxCell id="eKEfsuG5E0t4RD1mJ9Iq-30" value="" style="endArrow=none;html=1;rounded=0;" parent="1" source="4OtOSzDUsw7pKe0Kpmsl-3" target="eKEfsuG5E0t4RD1mJ9Iq-29" edge="1">
          <mxGeometry width="50" height="50" relative="1" as="geometry">
            <mxPoint x="440" y="520" as="sourcePoint" />
            <mxPoint x="537" y="561" as="targetPoint" />
          </mxGeometry>
        </mxCell>
        <mxCell id="eKEfsuG5E0t4RD1mJ9Iq-31" value="CashierID" style="ellipse;whiteSpace=wrap;html=1;align=center;" parent="1" vertex="1">
          <mxGeometry x="460" y="450" width="100" height="40" as="geometry" />
        </mxCell>
        <mxCell id="eKEfsuG5E0t4RD1mJ9Iq-32" value="" style="endArrow=none;html=1;rounded=0;" parent="1" source="eKEfsuG5E0t4RD1mJ9Iq-31" target="4OtOSzDUsw7pKe0Kpmsl-3" edge="1">
          <mxGeometry width="50" height="50" relative="1" as="geometry">
            <mxPoint x="620" y="550" as="sourcePoint" />
            <mxPoint x="717" y="591" as="targetPoint" />
          </mxGeometry>
        </mxCell>
        <mxCell id="eKEfsuG5E0t4RD1mJ9Iq-33" value="ProductID" style="ellipse;whiteSpace=wrap;html=1;align=center;fontStyle=4;" parent="1" vertex="1">
          <mxGeometry x="-267.5" y="350" width="70" height="40" as="geometry" />
        </mxCell>
        <mxCell id="eKEfsuG5E0t4RD1mJ9Iq-34" value="" style="endArrow=none;html=1;rounded=0;exitX=0.75;exitY=0;exitDx=0;exitDy=0;" parent="1" source="4OtOSzDUsw7pKe0Kpmsl-2" target="eKEfsuG5E0t4RD1mJ9Iq-33" edge="1">
          <mxGeometry width="50" height="50" relative="1" as="geometry">
            <mxPoint x="-420" y="630" as="sourcePoint" />
            <mxPoint x="-370" y="580" as="targetPoint" />
          </mxGeometry>
        </mxCell>
        <mxCell id="eKEfsuG5E0t4RD1mJ9Iq-36" value="" style="endArrow=none;html=1;rounded=0;" parent="1" source="4OtOSzDUsw7pKe0Kpmsl-6" target="eKEfsuG5E0t4RD1mJ9Iq-44" edge="1">
          <mxGeometry width="50" height="50" relative="1" as="geometry">
            <mxPoint x="-422.50810723175414" y="476.7675672582659" as="sourcePoint" />
            <mxPoint x="-350" y="650" as="targetPoint" />
          </mxGeometry>
        </mxCell>
        <mxCell id="eKEfsuG5E0t4RD1mJ9Iq-38" value="" style="endArrow=none;html=1;rounded=0;" parent="1" source="eKEfsuG5E0t4RD1mJ9Iq-43" target="4OtOSzDUsw7pKe0Kpmsl-6" edge="1">
          <mxGeometry width="50" height="50" relative="1" as="geometry">
            <mxPoint x="-226.35488067150118" y="473.44763381977464" as="sourcePoint" />
            <mxPoint x="-240" y="610" as="targetPoint" />
          </mxGeometry>
        </mxCell>
        <mxCell id="eKEfsuG5E0t4RD1mJ9Iq-39" value="Rating" style="ellipse;whiteSpace=wrap;html=1;align=center;" parent="1" vertex="1">
          <mxGeometry x="-380" y="490" width="70" height="40" as="geometry" />
        </mxCell>
        <mxCell id="eKEfsuG5E0t4RD1mJ9Iq-40" value="" style="endArrow=none;html=1;rounded=0;" parent="1" source="eKEfsuG5E0t4RD1mJ9Iq-39" target="4OtOSzDUsw7pKe0Kpmsl-2" edge="1">
          <mxGeometry width="50" height="50" relative="1" as="geometry">
            <mxPoint x="-360" y="525" as="sourcePoint" />
            <mxPoint x="-272" y="490" as="targetPoint" />
          </mxGeometry>
        </mxCell>
        <mxCell id="eKEfsuG5E0t4RD1mJ9Iq-41" value="" style="endArrow=none;html=1;rounded=0;" parent="1" source="4OtOSzDUsw7pKe0Kpmsl-6" target="eKEfsuG5E0t4RD1mJ9Iq-45" edge="1">
          <mxGeometry width="50" height="50" relative="1" as="geometry">
            <mxPoint x="-40" y="655" as="sourcePoint" />
            <mxPoint x="48" y="620" as="targetPoint" />
          </mxGeometry>
        </mxCell>
        <mxCell id="eKEfsuG5E0t4RD1mJ9Iq-43" value="Description" style="ellipse;whiteSpace=wrap;html=1;align=center;" parent="1" vertex="1">
          <mxGeometry x="-275" y="681" width="85" height="40" as="geometry" />
        </mxCell>
        <mxCell id="eKEfsuG5E0t4RD1mJ9Iq-44" value="ProductName" style="ellipse;whiteSpace=wrap;html=1;align=center;" parent="1" vertex="1">
          <mxGeometry x="-165" y="651" width="90" height="40" as="geometry" />
        </mxCell>
        <mxCell id="eKEfsuG5E0t4RD1mJ9Iq-45" value="InventoryID" style="ellipse;whiteSpace=wrap;html=1;align=center;fontStyle=4;" parent="1" vertex="1">
          <mxGeometry x="-540" y="720" width="80" height="40" as="geometry" />
        </mxCell>
        <mxCell id="eKEfsuG5E0t4RD1mJ9Iq-46" value="InventoryAmount" style="ellipse;whiteSpace=wrap;html=1;align=center;" parent="1" vertex="1">
          <mxGeometry x="-160" y="700" width="100" height="30" as="geometry" />
        </mxCell>
        <mxCell id="eKEfsuG5E0t4RD1mJ9Iq-47" value="" style="endArrow=none;html=1;rounded=0;" parent="1" source="4OtOSzDUsw7pKe0Kpmsl-6" target="eKEfsuG5E0t4RD1mJ9Iq-46" edge="1">
          <mxGeometry width="50" height="50" relative="1" as="geometry">
            <mxPoint x="-160" y="793" as="sourcePoint" />
            <mxPoint x="-36" y="770" as="targetPoint" />
          </mxGeometry>
        </mxCell>
        <mxCell id="eKEfsuG5E0t4RD1mJ9Iq-48" value="Amount&lt;div&gt;_allocated&lt;/div&gt;" style="ellipse;whiteSpace=wrap;html=1;align=center;" parent="1" vertex="1">
          <mxGeometry x="-470" y="460" width="80" height="60" as="geometry" />
        </mxCell>
        <mxCell id="eKEfsuG5E0t4RD1mJ9Iq-49" value="" style="endArrow=none;html=1;rounded=0;" parent="1" source="4OtOSzDUsw7pKe0Kpmsl-2" target="eKEfsuG5E0t4RD1mJ9Iq-48" edge="1">
          <mxGeometry width="50" height="50" relative="1" as="geometry">
            <mxPoint x="-310" y="481" as="sourcePoint" />
            <mxPoint x="-282" y="440" as="targetPoint" />
          </mxGeometry>
        </mxCell>
        <mxCell id="eKEfsuG5E0t4RD1mJ9Iq-50" value="SellingPrice" style="ellipse;whiteSpace=wrap;html=1;align=center;" parent="1" vertex="1">
          <mxGeometry x="-270" y="490" width="100" height="40" as="geometry" />
        </mxCell>
        <mxCell id="eKEfsuG5E0t4RD1mJ9Iq-51" value="" style="endArrow=none;html=1;rounded=0;" parent="1" source="eKEfsuG5E0t4RD1mJ9Iq-50" target="4OtOSzDUsw7pKe0Kpmsl-2" edge="1">
          <mxGeometry width="50" height="50" relative="1" as="geometry">
            <mxPoint x="-240" y="571" as="sourcePoint" />
            <mxPoint x="-212" y="530" as="targetPoint" />
          </mxGeometry>
        </mxCell>
        <mxCell id="eKEfsuG5E0t4RD1mJ9Iq-52" value="BuyingPrice" style="ellipse;whiteSpace=wrap;html=1;align=center;" parent="1" vertex="1">
          <mxGeometry x="-690" y="820" width="100" height="40" as="geometry" />
        </mxCell>
        <mxCell id="eKEfsuG5E0t4RD1mJ9Iq-53" value="" style="endArrow=none;html=1;rounded=0;" parent="1" source="4OtOSzDUsw7pKe0Kpmsl-6" target="eKEfsuG5E0t4RD1mJ9Iq-52" edge="1">
          <mxGeometry width="50" height="50" relative="1" as="geometry">
            <mxPoint x="-301" y="794" as="sourcePoint" />
            <mxPoint x="-350" y="760" as="targetPoint" />
          </mxGeometry>
        </mxCell>
        <mxCell id="eKEfsuG5E0t4RD1mJ9Iq-54" value="ProfitRate" style="ellipse;whiteSpace=wrap;html=1;align=center;" parent="1" vertex="1">
          <mxGeometry x="-685" y="870" width="100" height="40" as="geometry" />
        </mxCell>
        <mxCell id="eKEfsuG5E0t4RD1mJ9Iq-55" value="" style="endArrow=none;html=1;rounded=0;" parent="1" source="4OtOSzDUsw7pKe0Kpmsl-6" target="eKEfsuG5E0t4RD1mJ9Iq-54" edge="1">
          <mxGeometry width="50" height="50" relative="1" as="geometry">
            <mxPoint x="-287" y="880" as="sourcePoint" />
            <mxPoint x="-320" y="892" as="targetPoint" />
          </mxGeometry>
        </mxCell>
        <mxCell id="eKEfsuG5E0t4RD1mJ9Iq-56" value="ProfitAmount" style="ellipse;whiteSpace=wrap;html=1;align=center;" parent="1" vertex="1">
          <mxGeometry x="-262.5" y="860" width="100" height="40" as="geometry" />
        </mxCell>
        <mxCell id="eKEfsuG5E0t4RD1mJ9Iq-57" value="" style="endArrow=none;html=1;rounded=0;" parent="1" source="eKEfsuG5E0t4RD1mJ9Iq-56" target="4OtOSzDUsw7pKe0Kpmsl-6" edge="1">
          <mxGeometry width="50" height="50" relative="1" as="geometry">
            <mxPoint x="-291" y="804" as="sourcePoint" />
            <mxPoint x="-340" y="770" as="targetPoint" />
          </mxGeometry>
        </mxCell>
        <mxCell id="eKEfsuG5E0t4RD1mJ9Iq-58" value="Specifications" style="ellipse;whiteSpace=wrap;html=1;align=center;" parent="1" vertex="1">
          <mxGeometry x="-530" y="665" width="90" height="40" as="geometry" />
        </mxCell>
        <mxCell id="eKEfsuG5E0t4RD1mJ9Iq-59" value="" style="endArrow=none;html=1;rounded=0;" parent="1" source="4OtOSzDUsw7pKe0Kpmsl-6" target="eKEfsuG5E0t4RD1mJ9Iq-58" edge="1">
          <mxGeometry width="50" height="50" relative="1" as="geometry">
            <mxPoint x="-109" y="901" as="sourcePoint" />
            <mxPoint x="-150" y="860" as="targetPoint" />
          </mxGeometry>
        </mxCell>
        <mxCell id="eKEfsuG5E0t4RD1mJ9Iq-62" value="DamagedAmu" style="ellipse;whiteSpace=wrap;html=1;align=center;" parent="1" vertex="1">
          <mxGeometry x="-1020" y="616" width="120" height="40" as="geometry" />
        </mxCell>
        <mxCell id="eKEfsuG5E0t4RD1mJ9Iq-63" value="ReturningAmount" style="ellipse;whiteSpace=wrap;html=1;align=center;" parent="1" vertex="1">
          <mxGeometry x="-1180" y="616" width="120" height="40" as="geometry" />
        </mxCell>
        <mxCell id="eKEfsuG5E0t4RD1mJ9Iq-64" value="" style="endArrow=none;html=1;rounded=0;" parent="1" source="q5qDA-LX7BOF8YgOLXZg-99" target="eKEfsuG5E0t4RD1mJ9Iq-63" edge="1">
          <mxGeometry width="50" height="50" relative="1" as="geometry">
            <mxPoint x="-1130" y="896" as="sourcePoint" />
            <mxPoint x="-1080" y="846" as="targetPoint" />
          </mxGeometry>
        </mxCell>
        <mxCell id="eKEfsuG5E0t4RD1mJ9Iq-65" value="" style="endArrow=none;html=1;rounded=0;" parent="1" source="q5qDA-LX7BOF8YgOLXZg-99" target="eKEfsuG5E0t4RD1mJ9Iq-62" edge="1">
          <mxGeometry width="50" height="50" relative="1" as="geometry">
            <mxPoint x="-1160" y="946" as="sourcePoint" />
            <mxPoint x="-1110" y="896" as="targetPoint" />
          </mxGeometry>
        </mxCell>
        <mxCell id="eKEfsuG5E0t4RD1mJ9Iq-67" value="Category" style="ellipse;whiteSpace=wrap;html=1;align=center;" parent="1" vertex="1">
          <mxGeometry x="-17.5" y="1237.5" width="100" height="40" as="geometry" />
        </mxCell>
        <mxCell id="eKEfsuG5E0t4RD1mJ9Iq-70" value="" style="endArrow=none;html=1;rounded=0;" parent="1" source="q5qDA-LX7BOF8YgOLXZg-35" target="eKEfsuG5E0t4RD1mJ9Iq-67" edge="1">
          <mxGeometry width="50" height="50" relative="1" as="geometry">
            <mxPoint x="-350" y="1220" as="sourcePoint" />
            <mxPoint x="-300" y="1170" as="targetPoint" />
          </mxGeometry>
        </mxCell>
        <mxCell id="eKEfsuG5E0t4RD1mJ9Iq-71" value="CatID" style="ellipse;whiteSpace=wrap;html=1;align=center;fontStyle=4;" parent="1" vertex="1">
          <mxGeometry x="-200" y="1300" width="70" height="40" as="geometry" />
        </mxCell>
        <mxCell id="eKEfsuG5E0t4RD1mJ9Iq-72" value="" style="endArrow=none;html=1;rounded=0;" parent="1" source="eKEfsuG5E0t4RD1mJ9Iq-71" target="q5qDA-LX7BOF8YgOLXZg-35" edge="1">
          <mxGeometry width="50" height="50" relative="1" as="geometry">
            <mxPoint x="-200" y="1630" as="sourcePoint" />
            <mxPoint x="-150" y="1580" as="targetPoint" />
          </mxGeometry>
        </mxCell>
        <mxCell id="eKEfsuG5E0t4RD1mJ9Iq-74" value="Description" style="ellipse;whiteSpace=wrap;html=1;align=center;" parent="1" vertex="1">
          <mxGeometry x="-60" y="1300" width="100" height="40" as="geometry" />
        </mxCell>
        <mxCell id="eKEfsuG5E0t4RD1mJ9Iq-75" value="" style="endArrow=none;html=1;rounded=0;" parent="1" source="q5qDA-LX7BOF8YgOLXZg-35" target="eKEfsuG5E0t4RD1mJ9Iq-74" edge="1">
          <mxGeometry width="50" height="50" relative="1" as="geometry">
            <mxPoint x="-30" y="1394" as="sourcePoint" />
            <mxPoint x="4" y="1390" as="targetPoint" />
          </mxGeometry>
        </mxCell>
        <mxCell id="eKEfsuG5E0t4RD1mJ9Iq-76" value="Has" style="shape=rhombus;perimeter=rhombusPerimeter;whiteSpace=wrap;html=1;align=center;" parent="1" vertex="1">
          <mxGeometry x="-165" y="1400" width="120" height="60" as="geometry" />
        </mxCell>
        <mxCell id="eKEfsuG5E0t4RD1mJ9Iq-77" value="" style="shape=link;html=1;rounded=0;entryX=0.5;entryY=1;entryDx=0;entryDy=0;" parent="1" target="eKEfsuG5E0t4RD1mJ9Iq-76" edge="1">
          <mxGeometry relative="1" as="geometry">
            <mxPoint x="-105" y="1520" as="sourcePoint" />
            <mxPoint x="-61.25" y="1440" as="targetPoint" />
          </mxGeometry>
        </mxCell>
        <mxCell id="eKEfsuG5E0t4RD1mJ9Iq-78" value="" style="resizable=0;html=1;whiteSpace=wrap;align=left;verticalAlign=bottom;" parent="eKEfsuG5E0t4RD1mJ9Iq-77" connectable="0" vertex="1">
          <mxGeometry x="-1" relative="1" as="geometry" />
        </mxCell>
        <mxCell id="eKEfsuG5E0t4RD1mJ9Iq-79" value="" style="resizable=0;html=1;whiteSpace=wrap;align=right;verticalAlign=bottom;" parent="eKEfsuG5E0t4RD1mJ9Iq-77" connectable="0" vertex="1">
          <mxGeometry x="1" relative="1" as="geometry" />
        </mxCell>
        <mxCell id="eKEfsuG5E0t4RD1mJ9Iq-80" value="" style="endArrow=none;html=1;rounded=0;exitX=0.5;exitY=0;exitDx=0;exitDy=0;" parent="1" source="eKEfsuG5E0t4RD1mJ9Iq-76" target="q5qDA-LX7BOF8YgOLXZg-35" edge="1">
          <mxGeometry width="50" height="50" relative="1" as="geometry">
            <mxPoint x="-105" y="1430" as="sourcePoint" />
            <mxPoint x="-450" y="1490" as="targetPoint" />
          </mxGeometry>
        </mxCell>
        <mxCell id="eKEfsuG5E0t4RD1mJ9Iq-81" value="1" style="text;html=1;align=center;verticalAlign=middle;whiteSpace=wrap;rounded=0;" parent="1" vertex="1">
          <mxGeometry x="-160" y="1370" width="60" height="30" as="geometry" />
        </mxCell>
        <mxCell id="eKEfsuG5E0t4RD1mJ9Iq-82" value="M" style="text;html=1;align=center;verticalAlign=middle;whiteSpace=wrap;rounded=0;" parent="1" vertex="1">
          <mxGeometry x="-160" y="1460" width="60" height="30" as="geometry" />
        </mxCell>
        <mxCell id="eKEfsuG5E0t4RD1mJ9Iq-83" value="Sub-CatID" style="ellipse;whiteSpace=wrap;html=1;align=center;fontStyle=4;" parent="1" vertex="1">
          <mxGeometry x="-310" y="1570" width="100" height="40" as="geometry" />
        </mxCell>
        <mxCell id="eKEfsuG5E0t4RD1mJ9Iq-84" value="" style="endArrow=none;html=1;rounded=0;" parent="1" target="eKEfsuG5E0t4RD1mJ9Iq-83" edge="1">
          <mxGeometry width="50" height="50" relative="1" as="geometry">
            <mxPoint x="-167.04478369087656" y="1560" as="sourcePoint" />
            <mxPoint x="-470" y="1750" as="targetPoint" />
          </mxGeometry>
        </mxCell>
        <mxCell id="eKEfsuG5E0t4RD1mJ9Iq-85" value="Description" style="ellipse;whiteSpace=wrap;html=1;align=center;" parent="1" vertex="1">
          <mxGeometry x="-120" y="1590" width="100" height="40" as="geometry" />
        </mxCell>
        <mxCell id="eKEfsuG5E0t4RD1mJ9Iq-86" value="Category" style="ellipse;whiteSpace=wrap;html=1;align=center;" parent="1" vertex="1">
          <mxGeometry x="15" y="1570" width="100" height="40" as="geometry" />
        </mxCell>
        <mxCell id="eKEfsuG5E0t4RD1mJ9Iq-87" value="" style="endArrow=none;html=1;rounded=0;" parent="1" target="eKEfsuG5E0t4RD1mJ9Iq-85" edge="1">
          <mxGeometry width="50" height="50" relative="1" as="geometry">
            <mxPoint x="-94.96291369060918" y="1560" as="sourcePoint" />
            <mxPoint x="-340" y="1510" as="targetPoint" />
          </mxGeometry>
        </mxCell>
        <mxCell id="eKEfsuG5E0t4RD1mJ9Iq-88" value="" style="endArrow=none;html=1;rounded=0;" parent="1" target="eKEfsuG5E0t4RD1mJ9Iq-86" edge="1">
          <mxGeometry width="50" height="50" relative="1" as="geometry">
            <mxPoint x="-42.5" y="1558.3823529411766" as="sourcePoint" />
            <mxPoint x="-580" y="1540" as="targetPoint" />
          </mxGeometry>
        </mxCell>
        <mxCell id="eKEfsuG5E0t4RD1mJ9Iq-89" value="Material" style="ellipse;whiteSpace=wrap;html=1;align=center;" parent="1" vertex="1">
          <mxGeometry x="-130" y="741" width="80" height="40" as="geometry" />
        </mxCell>
        <mxCell id="eKEfsuG5E0t4RD1mJ9Iq-90" value="" style="endArrow=none;html=1;rounded=0;" parent="1" source="4OtOSzDUsw7pKe0Kpmsl-6" target="eKEfsuG5E0t4RD1mJ9Iq-89" edge="1">
          <mxGeometry width="50" height="50" relative="1" as="geometry">
            <mxPoint x="-10" y="1040" as="sourcePoint" />
            <mxPoint x="40" y="990" as="targetPoint" />
          </mxGeometry>
        </mxCell>
        <mxCell id="eKEfsuG5E0t4RD1mJ9Iq-91" value="Brand" style="ellipse;whiteSpace=wrap;html=1;align=center;" parent="1" vertex="1">
          <mxGeometry x="-410" y="675" width="80" height="40" as="geometry" />
        </mxCell>
        <mxCell id="eKEfsuG5E0t4RD1mJ9Iq-93" value="" style="endArrow=none;html=1;rounded=0;" parent="1" source="4OtOSzDUsw7pKe0Kpmsl-6" target="eKEfsuG5E0t4RD1mJ9Iq-91" edge="1">
          <mxGeometry width="50" height="50" relative="1" as="geometry">
            <mxPoint x="-480" y="1040" as="sourcePoint" />
            <mxPoint x="-430" y="990" as="targetPoint" />
          </mxGeometry>
        </mxCell>
        <mxCell id="eKEfsuG5E0t4RD1mJ9Iq-94" value="Has" style="shape=rhombus;perimeter=rhombusPerimeter;whiteSpace=wrap;html=1;align=center;" parent="1" vertex="1">
          <mxGeometry x="-755" y="300" width="120" height="60" as="geometry" />
        </mxCell>
        <mxCell id="eKEfsuG5E0t4RD1mJ9Iq-95" value="" style="resizable=0;html=1;whiteSpace=wrap;align=right;verticalAlign=bottom;" parent="1" connectable="0" vertex="1">
          <mxGeometry x="-754.4117647058824" y="330" as="geometry" />
        </mxCell>
        <mxCell id="eKEfsuG5E0t4RD1mJ9Iq-96" value="1" style="text;strokeColor=none;fillColor=none;spacingLeft=4;spacingRight=4;overflow=hidden;rotatable=0;points=[[0,0.5],[1,0.5]];portConstraint=eastwest;fontSize=12;whiteSpace=wrap;html=1;" parent="1" vertex="1">
          <mxGeometry x="-635" y="300" width="40" height="30" as="geometry" />
        </mxCell>
        <mxCell id="eKEfsuG5E0t4RD1mJ9Iq-97" value="M" style="text;strokeColor=none;fillColor=none;spacingLeft=4;spacingRight=4;overflow=hidden;rotatable=0;points=[[0,0.5],[1,0.5]];portConstraint=eastwest;fontSize=12;whiteSpace=wrap;html=1;" parent="1" vertex="1">
          <mxGeometry x="-785" y="300" width="40" height="30" as="geometry" />
        </mxCell>
        <mxCell id="eKEfsuG5E0t4RD1mJ9Iq-98" value="ProductImages" style="whiteSpace=wrap;html=1;align=center;" parent="1" vertex="1">
          <mxGeometry x="-1060" y="310" width="100" height="40" as="geometry" />
        </mxCell>
        <mxCell id="eKEfsuG5E0t4RD1mJ9Iq-99" value="" style="shape=link;html=1;rounded=0;entryX=0;entryY=0.5;entryDx=0;entryDy=0;exitX=1;exitY=0.5;exitDx=0;exitDy=0;" parent="1" source="eKEfsuG5E0t4RD1mJ9Iq-98" target="eKEfsuG5E0t4RD1mJ9Iq-94" edge="1">
          <mxGeometry relative="1" as="geometry">
            <mxPoint x="-660" y="550" as="sourcePoint" />
            <mxPoint x="-530" y="550" as="targetPoint" />
          </mxGeometry>
        </mxCell>
        <mxCell id="eKEfsuG5E0t4RD1mJ9Iq-100" value="" style="resizable=0;html=1;whiteSpace=wrap;align=left;verticalAlign=bottom;" parent="eKEfsuG5E0t4RD1mJ9Iq-99" connectable="0" vertex="1">
          <mxGeometry x="-1" relative="1" as="geometry" />
        </mxCell>
        <mxCell id="eKEfsuG5E0t4RD1mJ9Iq-101" value="" style="resizable=0;html=1;whiteSpace=wrap;align=right;verticalAlign=bottom;" parent="eKEfsuG5E0t4RD1mJ9Iq-99" connectable="0" vertex="1">
          <mxGeometry x="1" relative="1" as="geometry" />
        </mxCell>
        <mxCell id="eKEfsuG5E0t4RD1mJ9Iq-105" value="URL" style="ellipse;whiteSpace=wrap;html=1;align=center;" parent="1" vertex="1">
          <mxGeometry x="-1050" y="230" width="70" height="40" as="geometry" />
        </mxCell>
        <mxCell id="eKEfsuG5E0t4RD1mJ9Iq-106" value="ImageID" style="ellipse;whiteSpace=wrap;html=1;align=center;fontStyle=4;" parent="1" vertex="1">
          <mxGeometry x="-1170" y="230" width="100" height="40" as="geometry" />
        </mxCell>
        <mxCell id="eKEfsuG5E0t4RD1mJ9Iq-107" value="" style="endArrow=none;html=1;rounded=0;" parent="1" source="eKEfsuG5E0t4RD1mJ9Iq-98" target="eKEfsuG5E0t4RD1mJ9Iq-106" edge="1">
          <mxGeometry width="50" height="50" relative="1" as="geometry">
            <mxPoint x="-1150" y="500" as="sourcePoint" />
            <mxPoint x="-1100" y="450" as="targetPoint" />
          </mxGeometry>
        </mxCell>
        <mxCell id="eKEfsuG5E0t4RD1mJ9Iq-108" value="" style="endArrow=none;html=1;rounded=0;" parent="1" source="eKEfsuG5E0t4RD1mJ9Iq-98" target="eKEfsuG5E0t4RD1mJ9Iq-105" edge="1">
          <mxGeometry width="50" height="50" relative="1" as="geometry">
            <mxPoint x="-1220" y="490" as="sourcePoint" />
            <mxPoint x="-1170" y="440" as="targetPoint" />
          </mxGeometry>
        </mxCell>
        <mxCell id="-DnCc5Ymo5U40kZKFfAo-1" value="DamagedInventoryID" style="ellipse;whiteSpace=wrap;html=1;align=center;fontStyle=4;" parent="1" vertex="1">
          <mxGeometry x="-1230" y="750" width="130" height="40" as="geometry" />
        </mxCell>
        <mxCell id="-DnCc5Ymo5U40kZKFfAo-2" value="" style="endArrow=none;html=1;rounded=0;" parent="1" source="-DnCc5Ymo5U40kZKFfAo-1" target="q5qDA-LX7BOF8YgOLXZg-99" edge="1">
          <mxGeometry width="50" height="50" relative="1" as="geometry">
            <mxPoint x="-1030" y="970" as="sourcePoint" />
            <mxPoint x="-980" y="920" as="targetPoint" />
          </mxGeometry>
        </mxCell>
        <mxCell id="-DnCc5Ymo5U40kZKFfAo-3" value="DamageDescription" style="ellipse;whiteSpace=wrap;html=1;align=center;" parent="1" vertex="1">
          <mxGeometry x="-1060" y="760" width="130" height="40" as="geometry" />
        </mxCell>
        <mxCell id="-DnCc5Ymo5U40kZKFfAo-4" value="" style="endArrow=none;html=1;rounded=0;" parent="1" source="q5qDA-LX7BOF8YgOLXZg-99" target="-DnCc5Ymo5U40kZKFfAo-3" edge="1">
          <mxGeometry width="50" height="50" relative="1" as="geometry">
            <mxPoint x="-1040" y="802" as="sourcePoint" />
            <mxPoint x="-995" y="780" as="targetPoint" />
          </mxGeometry>
        </mxCell>
        <mxCell id="-DnCc5Ymo5U40kZKFfAo-5" value="SupplierID" style="ellipse;whiteSpace=wrap;html=1;align=center;" parent="1" vertex="1">
          <mxGeometry x="-30" y="760" width="100" height="40" as="geometry" />
        </mxCell>
        <mxCell id="-DnCc5Ymo5U40kZKFfAo-6" value="" style="endArrow=none;html=1;rounded=0;" parent="1" source="4OtOSzDUsw7pKe0Kpmsl-6" target="-DnCc5Ymo5U40kZKFfAo-5" edge="1">
          <mxGeometry width="50" height="50" relative="1" as="geometry">
            <mxPoint x="-10" y="1040" as="sourcePoint" />
            <mxPoint x="40" y="990" as="targetPoint" />
          </mxGeometry>
        </mxCell>
        <mxCell id="-DnCc5Ymo5U40kZKFfAo-8" value="InventoryUpdatedHistory" style="whiteSpace=wrap;html=1;align=center;" parent="1" vertex="1">
          <mxGeometry x="-680" y="1400" width="160" height="40" as="geometry" />
        </mxCell>
        <mxCell id="-DnCc5Ymo5U40kZKFfAo-9" value="ModifyID" style="ellipse;whiteSpace=wrap;html=1;align=center;fontStyle=4;" parent="1" vertex="1">
          <mxGeometry x="-780" y="1470" width="100" height="40" as="geometry" />
        </mxCell>
        <mxCell id="-DnCc5Ymo5U40kZKFfAo-10" value="Date" style="ellipse;whiteSpace=wrap;html=1;align=center;" parent="1" vertex="1">
          <mxGeometry x="-810" y="1390" width="100" height="40" as="geometry" />
        </mxCell>
        <mxCell id="-DnCc5Ymo5U40kZKFfAo-11" value="Time" style="ellipse;whiteSpace=wrap;html=1;align=center;" parent="1" vertex="1">
          <mxGeometry x="-470" y="1390" width="100" height="40" as="geometry" />
        </mxCell>
        <mxCell id="-DnCc5Ymo5U40kZKFfAo-12" value="SupplierID" style="ellipse;whiteSpace=wrap;html=1;align=center;" parent="1" vertex="1">
          <mxGeometry x="-650" y="1490" width="100" height="40" as="geometry" />
        </mxCell>
        <mxCell id="-DnCc5Ymo5U40kZKFfAo-13" value="EmployeeID" style="ellipse;whiteSpace=wrap;html=1;align=center;" parent="1" vertex="1">
          <mxGeometry x="-550" y="1460" width="100" height="40" as="geometry" />
        </mxCell>
        <mxCell id="-DnCc5Ymo5U40kZKFfAo-14" value="" style="endArrow=none;html=1;rounded=0;" parent="1" source="-DnCc5Ymo5U40kZKFfAo-8" target="-DnCc5Ymo5U40kZKFfAo-9" edge="1">
          <mxGeometry width="50" height="50" relative="1" as="geometry">
            <mxPoint x="-850" y="1670" as="sourcePoint" />
            <mxPoint x="-800" y="1620" as="targetPoint" />
          </mxGeometry>
        </mxCell>
        <mxCell id="-DnCc5Ymo5U40kZKFfAo-15" value="" style="endArrow=none;html=1;rounded=0;" parent="1" source="-DnCc5Ymo5U40kZKFfAo-8" target="-DnCc5Ymo5U40kZKFfAo-10" edge="1">
          <mxGeometry width="50" height="50" relative="1" as="geometry">
            <mxPoint x="-730" y="1580" as="sourcePoint" />
            <mxPoint x="-680" y="1530" as="targetPoint" />
          </mxGeometry>
        </mxCell>
        <mxCell id="-DnCc5Ymo5U40kZKFfAo-16" value="" style="endArrow=none;html=1;rounded=0;" parent="1" source="-DnCc5Ymo5U40kZKFfAo-8" target="-DnCc5Ymo5U40kZKFfAo-11" edge="1">
          <mxGeometry width="50" height="50" relative="1" as="geometry">
            <mxPoint x="-780" y="1580" as="sourcePoint" />
            <mxPoint x="-730" y="1530" as="targetPoint" />
          </mxGeometry>
        </mxCell>
        <mxCell id="-DnCc5Ymo5U40kZKFfAo-17" value="" style="endArrow=none;html=1;rounded=0;" parent="1" source="-DnCc5Ymo5U40kZKFfAo-8" target="-DnCc5Ymo5U40kZKFfAo-13" edge="1">
          <mxGeometry width="50" height="50" relative="1" as="geometry">
            <mxPoint x="-820" y="1620" as="sourcePoint" />
            <mxPoint x="-770" y="1570" as="targetPoint" />
          </mxGeometry>
        </mxCell>
        <mxCell id="-DnCc5Ymo5U40kZKFfAo-18" value="" style="endArrow=none;html=1;rounded=0;" parent="1" source="-DnCc5Ymo5U40kZKFfAo-8" target="-DnCc5Ymo5U40kZKFfAo-12" edge="1">
          <mxGeometry width="50" height="50" relative="1" as="geometry">
            <mxPoint x="-780" y="1620" as="sourcePoint" />
            <mxPoint x="-730" y="1570" as="targetPoint" />
          </mxGeometry>
        </mxCell>
        <mxCell id="-DnCc5Ymo5U40kZKFfAo-19" value="Modified" style="shape=rhombus;perimeter=rhombusPerimeter;whiteSpace=wrap;html=1;align=center;" parent="1" vertex="1">
          <mxGeometry x="-660" y="1285" width="120" height="60" as="geometry" />
        </mxCell>
        <mxCell id="-DnCc5Ymo5U40kZKFfAo-20" value="" style="resizable=0;html=1;whiteSpace=wrap;align=left;verticalAlign=bottom;" parent="1" connectable="0" vertex="1">
          <mxGeometry x="-600" y="1285" as="geometry" />
        </mxCell>
        <mxCell id="-DnCc5Ymo5U40kZKFfAo-21" value="" style="resizable=0;html=1;whiteSpace=wrap;align=right;verticalAlign=bottom;" parent="1" connectable="0" vertex="1">
          <mxGeometry x="-600" y="1345" as="geometry" />
        </mxCell>
        <mxCell id="-DnCc5Ymo5U40kZKFfAo-22" value="1" style="text;strokeColor=none;fillColor=none;spacingLeft=4;spacingRight=4;overflow=hidden;rotatable=0;points=[[0,0.5],[1,0.5]];portConstraint=eastwest;fontSize=12;whiteSpace=wrap;html=1;" parent="1" vertex="1">
          <mxGeometry x="-625" y="1260" width="40" height="30" as="geometry" />
        </mxCell>
        <mxCell id="-DnCc5Ymo5U40kZKFfAo-23" value="M" style="text;strokeColor=none;fillColor=none;spacingLeft=4;spacingRight=4;overflow=hidden;rotatable=0;points=[[0,0.5],[1,0.5]];portConstraint=eastwest;fontSize=12;whiteSpace=wrap;html=1;" parent="1" vertex="1">
          <mxGeometry x="-630" y="1340" width="40" height="30" as="geometry" />
        </mxCell>
        <mxCell id="-DnCc5Ymo5U40kZKFfAo-24" value="Status (active or removed)" style="ellipse;whiteSpace=wrap;html=1;align=center;" parent="1" vertex="1">
          <mxGeometry x="-540" y="905" width="110" height="50" as="geometry" />
        </mxCell>
        <mxCell id="-DnCc5Ymo5U40kZKFfAo-25" value="" style="endArrow=none;html=1;rounded=0;entryX=0.203;entryY=1.011;entryDx=0;entryDy=0;entryPerimeter=0;" parent="1" source="-DnCc5Ymo5U40kZKFfAo-24" target="4OtOSzDUsw7pKe0Kpmsl-6" edge="1">
          <mxGeometry width="50" height="50" relative="1" as="geometry">
            <mxPoint x="-730" y="1120" as="sourcePoint" />
            <mxPoint x="-680" y="1070" as="targetPoint" />
          </mxGeometry>
        </mxCell>
        <mxCell id="-DnCc5Ymo5U40kZKFfAo-26" value="" style="shape=link;html=1;rounded=0;exitX=0.5;exitY=0;exitDx=0;exitDy=0;entryX=0.5;entryY=1;entryDx=0;entryDy=0;" parent="1" source="-DnCc5Ymo5U40kZKFfAo-8" target="-DnCc5Ymo5U40kZKFfAo-19" edge="1">
          <mxGeometry relative="1" as="geometry">
            <mxPoint x="-605.6199999999999" y="1589" as="sourcePoint" />
            <mxPoint x="-605.6199999999999" y="1450" as="targetPoint" />
          </mxGeometry>
        </mxCell>
        <mxCell id="-DnCc5Ymo5U40kZKFfAo-27" value="" style="resizable=0;html=1;whiteSpace=wrap;align=left;verticalAlign=bottom;" parent="-DnCc5Ymo5U40kZKFfAo-26" connectable="0" vertex="1">
          <mxGeometry x="-1" relative="1" as="geometry" />
        </mxCell>
        <mxCell id="-DnCc5Ymo5U40kZKFfAo-28" value="" style="resizable=0;html=1;whiteSpace=wrap;align=right;verticalAlign=bottom;" parent="-DnCc5Ymo5U40kZKFfAo-26" connectable="0" vertex="1">
          <mxGeometry x="1" relative="1" as="geometry" />
        </mxCell>
        <mxCell id="-DnCc5Ymo5U40kZKFfAo-30" value="" style="endArrow=none;html=1;rounded=0;exitX=0.5;exitY=0;exitDx=0;exitDy=0;entryX=0.204;entryY=0.995;entryDx=0;entryDy=0;entryPerimeter=0;" parent="1" source="-DnCc5Ymo5U40kZKFfAo-19" target="4OtOSzDUsw7pKe0Kpmsl-6" edge="1">
          <mxGeometry width="50" height="50" relative="1" as="geometry">
            <mxPoint x="-550" y="1170" as="sourcePoint" />
            <mxPoint x="-320" y="820" as="targetPoint" />
            <Array as="points">
              <mxPoint x="-600" y="1110" />
              <mxPoint x="-450" y="1110" />
              <mxPoint x="-450" y="1030" />
              <mxPoint x="-370" y="1030" />
              <mxPoint x="-370" y="920" />
              <mxPoint x="-320" y="920" />
            </Array>
          </mxGeometry>
        </mxCell>
        <mxCell id="-DnCc5Ymo5U40kZKFfAo-31" value="ColorID" style="ellipse;whiteSpace=wrap;html=1;align=center;fontStyle=4;" parent="1" vertex="1">
          <mxGeometry x="-1100" y="1180" width="100" height="40" as="geometry" />
        </mxCell>
        <mxCell id="-DnCc5Ymo5U40kZKFfAo-32" value="HexCode" style="ellipse;whiteSpace=wrap;html=1;align=center;" parent="1" vertex="1">
          <mxGeometry x="-1100" y="1265" width="100" height="40" as="geometry" />
        </mxCell>
        <mxCell id="-DnCc5Ymo5U40kZKFfAo-33" value="" style="endArrow=none;html=1;rounded=0;" parent="1" source="-DnCc5Ymo5U40kZKFfAo-32" edge="1">
          <mxGeometry width="50" height="50" relative="1" as="geometry">
            <mxPoint x="-1090" y="1420" as="sourcePoint" />
            <mxPoint x="-930" y="1240.8823529411766" as="targetPoint" />
          </mxGeometry>
        </mxCell>
        <mxCell id="-DnCc5Ymo5U40kZKFfAo-34" value="" style="endArrow=none;html=1;rounded=0;exitX=-0.004;exitY=0.927;exitDx=0;exitDy=0;exitPerimeter=0;" parent="1" target="-DnCc5Ymo5U40kZKFfAo-31" edge="1">
          <mxGeometry width="50" height="50" relative="1" as="geometry">
            <mxPoint x="-930.4000000000001" y="1239.58" as="sourcePoint" />
            <mxPoint x="-1120" y="1350" as="targetPoint" />
          </mxGeometry>
        </mxCell>
        <mxCell id="-DnCc5Ymo5U40kZKFfAo-35" value="PromotionName" style="ellipse;whiteSpace=wrap;html=1;align=center;" parent="1" vertex="1">
          <mxGeometry x="-1150" y="460" width="100" height="40" as="geometry" />
        </mxCell>
        <mxCell id="-DnCc5Ymo5U40kZKFfAo-36" value="Percentage" style="ellipse;whiteSpace=wrap;html=1;align=center;" parent="1" vertex="1">
          <mxGeometry x="-1030" y="510" width="100" height="40" as="geometry" />
        </mxCell>
        <mxCell id="-DnCc5Ymo5U40kZKFfAo-37" value="StartTime" style="ellipse;whiteSpace=wrap;html=1;align=center;" parent="1" vertex="1">
          <mxGeometry x="-920" y="520" width="100" height="40" as="geometry" />
        </mxCell>
        <mxCell id="-DnCc5Ymo5U40kZKFfAo-38" value="EndTime" style="ellipse;whiteSpace=wrap;html=1;align=center;" parent="1" vertex="1">
          <mxGeometry x="-855" y="470" width="100" height="40" as="geometry" />
        </mxCell>
        <mxCell id="-DnCc5Ymo5U40kZKFfAo-39" value="PromoID" style="ellipse;whiteSpace=wrap;html=1;align=center;fontStyle=4;" parent="1" vertex="1">
          <mxGeometry x="-1150" y="390" width="100" height="40" as="geometry" />
        </mxCell>
        <mxCell id="-DnCc5Ymo5U40kZKFfAo-40" value="" style="endArrow=none;html=1;rounded=0;" parent="1" source="q5qDA-LX7BOF8YgOLXZg-45" target="-DnCc5Ymo5U40kZKFfAo-39" edge="1">
          <mxGeometry width="50" height="50" relative="1" as="geometry">
            <mxPoint x="-1270" y="610" as="sourcePoint" />
            <mxPoint x="-1220" y="560" as="targetPoint" />
          </mxGeometry>
        </mxCell>
        <mxCell id="-DnCc5Ymo5U40kZKFfAo-41" value="" style="endArrow=none;html=1;rounded=0;" parent="1" source="q5qDA-LX7BOF8YgOLXZg-45" target="-DnCc5Ymo5U40kZKFfAo-35" edge="1">
          <mxGeometry width="50" height="50" relative="1" as="geometry">
            <mxPoint x="-1240" y="580" as="sourcePoint" />
            <mxPoint x="-1190" y="530" as="targetPoint" />
          </mxGeometry>
        </mxCell>
        <mxCell id="-DnCc5Ymo5U40kZKFfAo-42" value="" style="endArrow=none;html=1;rounded=0;" parent="1" source="-DnCc5Ymo5U40kZKFfAo-36" target="q5qDA-LX7BOF8YgOLXZg-45" edge="1">
          <mxGeometry width="50" height="50" relative="1" as="geometry">
            <mxPoint x="-850" y="590" as="sourcePoint" />
            <mxPoint x="-800" y="540" as="targetPoint" />
          </mxGeometry>
        </mxCell>
        <mxCell id="-DnCc5Ymo5U40kZKFfAo-43" value="" style="endArrow=none;html=1;rounded=0;" parent="1" source="-DnCc5Ymo5U40kZKFfAo-37" target="q5qDA-LX7BOF8YgOLXZg-45" edge="1">
          <mxGeometry width="50" height="50" relative="1" as="geometry">
            <mxPoint x="-830" y="690" as="sourcePoint" />
            <mxPoint x="-780" y="640" as="targetPoint" />
          </mxGeometry>
        </mxCell>
        <mxCell id="-DnCc5Ymo5U40kZKFfAo-44" value="" style="endArrow=none;html=1;rounded=0;" parent="1" source="-DnCc5Ymo5U40kZKFfAo-38" target="q5qDA-LX7BOF8YgOLXZg-45" edge="1">
          <mxGeometry width="50" height="50" relative="1" as="geometry">
            <mxPoint x="-1010" y="670" as="sourcePoint" />
            <mxPoint x="-960" y="620" as="targetPoint" />
          </mxGeometry>
        </mxCell>
        <mxCell id="-DnCc5Ymo5U40kZKFfAo-45" value="PaymentID" style="ellipse;whiteSpace=wrap;html=1;align=center;fontStyle=4;" parent="1" vertex="1">
          <mxGeometry x="150" y="990" width="100" height="40" as="geometry" />
        </mxCell>
        <mxCell id="-DnCc5Ymo5U40kZKFfAo-46" value="Type" style="ellipse;whiteSpace=wrap;html=1;align=center;" parent="1" vertex="1">
          <mxGeometry x="290" y="982.5" width="80" height="40" as="geometry" />
        </mxCell>
        <mxCell id="-DnCc5Ymo5U40kZKFfAo-50" value="" style="endArrow=none;html=1;rounded=0;" parent="1" source="-DnCc5Ymo5U40kZKFfAo-45" target="q5qDA-LX7BOF8YgOLXZg-25" edge="1">
          <mxGeometry width="50" height="50" relative="1" as="geometry">
            <mxPoint x="50" y="1140" as="sourcePoint" />
            <mxPoint x="100" y="1090" as="targetPoint" />
          </mxGeometry>
        </mxCell>
        <mxCell id="-DnCc5Ymo5U40kZKFfAo-51" value="" style="endArrow=none;html=1;rounded=0;" parent="1" source="q5qDA-LX7BOF8YgOLXZg-25" target="-DnCc5Ymo5U40kZKFfAo-46" edge="1">
          <mxGeometry width="50" height="50" relative="1" as="geometry">
            <mxPoint x="10" y="1150" as="sourcePoint" />
            <mxPoint x="60" y="1100" as="targetPoint" />
          </mxGeometry>
        </mxCell>
        <mxCell id="-DnCc5Ymo5U40kZKFfAo-57" value="" style="resizable=0;html=1;whiteSpace=wrap;align=left;verticalAlign=bottom;" parent="1" connectable="0" vertex="1">
          <mxGeometry x="-275" y="1187.5" as="geometry" />
        </mxCell>
        <mxCell id="-DnCc5Ymo5U40kZKFfAo-58" value="SizeID" style="ellipse;whiteSpace=wrap;html=1;align=center;fontStyle=4;" parent="1" vertex="1">
          <mxGeometry x="-495" y="1187.5" width="100" height="40" as="geometry" />
        </mxCell>
        <mxCell id="-DnCc5Ymo5U40kZKFfAo-59" value="Name" style="ellipse;whiteSpace=wrap;html=1;align=center;" parent="1" vertex="1">
          <mxGeometry x="-495" y="1245" width="100" height="40" as="geometry" />
        </mxCell>
        <mxCell id="-DnCc5Ymo5U40kZKFfAo-60" value="" style="endArrow=none;html=1;rounded=0;entryX=0;entryY=1;entryDx=0;entryDy=0;" parent="1" source="-DnCc5Ymo5U40kZKFfAo-59" edge="1">
          <mxGeometry width="50" height="50" relative="1" as="geometry">
            <mxPoint x="-485" y="1405" as="sourcePoint" />
            <mxPoint x="-330" y="1237.5" as="targetPoint" />
          </mxGeometry>
        </mxCell>
        <mxCell id="-DnCc5Ymo5U40kZKFfAo-61" value="" style="endArrow=none;html=1;rounded=0;exitX=0;exitY=1;exitDx=0;exitDy=0;" parent="1" target="-DnCc5Ymo5U40kZKFfAo-58" edge="1">
          <mxGeometry width="50" height="50" relative="1" as="geometry">
            <mxPoint x="-330" y="1237.5" as="sourcePoint" />
            <mxPoint x="-515" y="1335" as="targetPoint" />
          </mxGeometry>
        </mxCell>
        <mxCell id="-DnCc5Ymo5U40kZKFfAo-62" value="Name" style="ellipse;whiteSpace=wrap;html=1;align=center;" parent="1" vertex="1">
          <mxGeometry x="-1020" y="1310" width="100" height="40" as="geometry" />
        </mxCell>
        <mxCell id="-DnCc5Ymo5U40kZKFfAo-63" value="" style="endArrow=none;html=1;rounded=0;" parent="1" source="-DnCc5Ymo5U40kZKFfAo-62" edge="1">
          <mxGeometry width="50" height="50" relative="1" as="geometry">
            <mxPoint x="-1070" y="1460" as="sourcePoint" />
            <mxPoint x="-896.7441860465117" y="1242.5" as="targetPoint" />
          </mxGeometry>
        </mxCell>
        <mxCell id="-DnCc5Ymo5U40kZKFfAo-64" value="Measurements" style="ellipse;whiteSpace=wrap;html=1;align=center;" parent="1" vertex="1">
          <mxGeometry x="-410" y="1290" width="100" height="40" as="geometry" />
        </mxCell>
        <mxCell id="-DnCc5Ymo5U40kZKFfAo-65" value="" style="endArrow=none;html=1;rounded=0;" parent="1" source="-DnCc5Ymo5U40kZKFfAo-64" edge="1">
          <mxGeometry width="50" height="50" relative="1" as="geometry">
            <mxPoint x="-330" y="1460" as="sourcePoint" />
            <mxPoint x="-297.2972972972973" y="1237.5" as="targetPoint" />
          </mxGeometry>
        </mxCell>
        <mxCell id="-DnCc5Ymo5U40kZKFfAo-66" value="SipmentID" style="ellipse;whiteSpace=wrap;html=1;align=center;fontStyle=4;" parent="1" vertex="1">
          <mxGeometry x="720" y="651" width="100" height="40" as="geometry" />
        </mxCell>
        <mxCell id="-DnCc5Ymo5U40kZKFfAo-67" value="Date" style="ellipse;whiteSpace=wrap;html=1;align=center;" parent="1" vertex="1">
          <mxGeometry x="840" y="651" width="50" height="40" as="geometry" />
        </mxCell>
        <mxCell id="-DnCc5Ymo5U40kZKFfAo-68" value="Time" style="ellipse;whiteSpace=wrap;html=1;align=center;" parent="1" vertex="1">
          <mxGeometry x="910" y="651" width="50" height="40" as="geometry" />
        </mxCell>
        <mxCell id="-DnCc5Ymo5U40kZKFfAo-69" value="DestinationAddress" style="ellipse;whiteSpace=wrap;html=1;align=center;" parent="1" vertex="1">
          <mxGeometry x="650" y="865" width="125" height="40" as="geometry" />
        </mxCell>
        <mxCell id="-DnCc5Ymo5U40kZKFfAo-72" value="ServiceCharge" style="ellipse;whiteSpace=wrap;html=1;align=center;" parent="1" vertex="1">
          <mxGeometry x="830" y="865" width="100" height="40" as="geometry" />
        </mxCell>
        <mxCell id="-DnCc5Ymo5U40kZKFfAo-73" value="Tax" style="ellipse;whiteSpace=wrap;html=1;align=center;" parent="1" vertex="1">
          <mxGeometry x="640" y="800" width="70" height="40" as="geometry" />
        </mxCell>
        <mxCell id="-DnCc5Ymo5U40kZKFfAo-74" value="EstimatedDeliverDate" style="ellipse;whiteSpace=wrap;html=1;align=center;" parent="1" vertex="1">
          <mxGeometry x="705" y="930" width="150" height="42" as="geometry" />
        </mxCell>
        <mxCell id="-DnCc5Ymo5U40kZKFfAo-75" value="" style="endArrow=none;html=1;rounded=0;" parent="1" source="q5qDA-LX7BOF8YgOLXZg-71" target="-DnCc5Ymo5U40kZKFfAo-66" edge="1">
          <mxGeometry width="50" height="50" relative="1" as="geometry">
            <mxPoint x="580" y="970" as="sourcePoint" />
            <mxPoint x="630" y="920" as="targetPoint" />
          </mxGeometry>
        </mxCell>
        <mxCell id="-DnCc5Ymo5U40kZKFfAo-76" value="" style="endArrow=none;html=1;rounded=0;" parent="1" source="q5qDA-LX7BOF8YgOLXZg-71" target="-DnCc5Ymo5U40kZKFfAo-67" edge="1">
          <mxGeometry width="50" height="50" relative="1" as="geometry">
            <mxPoint x="730" y="910" as="sourcePoint" />
            <mxPoint x="780" y="860" as="targetPoint" />
          </mxGeometry>
        </mxCell>
        <mxCell id="-DnCc5Ymo5U40kZKFfAo-77" value="" style="endArrow=none;html=1;rounded=0;" parent="1" source="q5qDA-LX7BOF8YgOLXZg-71" target="-DnCc5Ymo5U40kZKFfAo-68" edge="1">
          <mxGeometry width="50" height="50" relative="1" as="geometry">
            <mxPoint x="610" y="950" as="sourcePoint" />
            <mxPoint x="660" y="900" as="targetPoint" />
          </mxGeometry>
        </mxCell>
        <mxCell id="-DnCc5Ymo5U40kZKFfAo-78" value="" style="endArrow=none;html=1;rounded=0;" parent="1" source="q5qDA-LX7BOF8YgOLXZg-71" target="-DnCc5Ymo5U40kZKFfAo-69" edge="1">
          <mxGeometry width="50" height="50" relative="1" as="geometry">
            <mxPoint x="620" y="900" as="sourcePoint" />
            <mxPoint x="670" y="850" as="targetPoint" />
          </mxGeometry>
        </mxCell>
        <mxCell id="-DnCc5Ymo5U40kZKFfAo-79" value="" style="endArrow=none;html=1;rounded=0;" parent="1" source="q5qDA-LX7BOF8YgOLXZg-71" target="-DnCc5Ymo5U40kZKFfAo-72" edge="1">
          <mxGeometry width="50" height="50" relative="1" as="geometry">
            <mxPoint x="490" y="1040" as="sourcePoint" />
            <mxPoint x="540" y="990" as="targetPoint" />
          </mxGeometry>
        </mxCell>
        <mxCell id="-DnCc5Ymo5U40kZKFfAo-80" value="" style="endArrow=none;html=1;rounded=0;" parent="1" source="q5qDA-LX7BOF8YgOLXZg-71" target="-DnCc5Ymo5U40kZKFfAo-73" edge="1">
          <mxGeometry width="50" height="50" relative="1" as="geometry">
            <mxPoint x="570" y="1070" as="sourcePoint" />
            <mxPoint x="620" y="1020" as="targetPoint" />
          </mxGeometry>
        </mxCell>
        <mxCell id="-DnCc5Ymo5U40kZKFfAo-81" value="" style="endArrow=none;html=1;rounded=0;" parent="1" source="q5qDA-LX7BOF8YgOLXZg-71" target="-DnCc5Ymo5U40kZKFfAo-74" edge="1">
          <mxGeometry width="50" height="50" relative="1" as="geometry">
            <mxPoint x="490" y="1060" as="sourcePoint" />
            <mxPoint x="540" y="1010" as="targetPoint" />
          </mxGeometry>
        </mxCell>
        <mxCell id="-DnCc5Ymo5U40kZKFfAo-82" value="TotalShipmentCharge" style="ellipse;whiteSpace=wrap;html=1;align=center;" parent="1" vertex="1">
          <mxGeometry x="890" y="820" width="130" height="40" as="geometry" />
        </mxCell>
        <mxCell id="-DnCc5Ymo5U40kZKFfAo-83" value="" style="endArrow=none;html=1;rounded=0;" parent="1" source="q5qDA-LX7BOF8YgOLXZg-71" target="-DnCc5Ymo5U40kZKFfAo-82" edge="1">
          <mxGeometry width="50" height="50" relative="1" as="geometry">
            <mxPoint x="920" y="1160" as="sourcePoint" />
            <mxPoint x="970" y="1110" as="targetPoint" />
          </mxGeometry>
        </mxCell>
        <mxCell id="-DnCc5Ymo5U40kZKFfAo-84" value="Transported by" style="shape=rhombus;perimeter=rhombusPerimeter;whiteSpace=wrap;html=1;align=center;" parent="1" vertex="1">
          <mxGeometry x="1110" y="720" width="120" height="60" as="geometry" />
        </mxCell>
        <mxCell id="-DnCc5Ymo5U40kZKFfAo-85" value="TransportProvider" style="whiteSpace=wrap;html=1;align=center;" parent="1" vertex="1">
          <mxGeometry x="1110" y="540" width="120" height="40" as="geometry" />
        </mxCell>
        <mxCell id="-DnCc5Ymo5U40kZKFfAo-86" value="ProviderID" style="ellipse;whiteSpace=wrap;html=1;align=center;fontStyle=4;" parent="1" vertex="1">
          <mxGeometry x="950" y="485" width="100" height="40" as="geometry" />
        </mxCell>
        <mxCell id="-DnCc5Ymo5U40kZKFfAo-87" value="Address" style="ellipse;whiteSpace=wrap;html=1;align=center;" parent="1" vertex="1">
          <mxGeometry x="980" y="420" width="80" height="40" as="geometry" />
        </mxCell>
        <mxCell id="-DnCc5Ymo5U40kZKFfAo-88" value="Email" style="ellipse;whiteSpace=wrap;html=1;align=center;" parent="1" vertex="1">
          <mxGeometry x="1020" y="360" width="70" height="40" as="geometry" />
        </mxCell>
        <mxCell id="-DnCc5Ymo5U40kZKFfAo-89" value="ContactNo" style="ellipse;whiteSpace=wrap;html=1;align=center;" parent="1" vertex="1">
          <mxGeometry x="960" y="550" width="100" height="40" as="geometry" />
        </mxCell>
        <mxCell id="-DnCc5Ymo5U40kZKFfAo-90" value="FaxNumber" style="ellipse;whiteSpace=wrap;html=1;align=center;" parent="1" vertex="1">
          <mxGeometry x="1270" y="460" width="100" height="40" as="geometry" />
        </mxCell>
        <mxCell id="-DnCc5Ymo5U40kZKFfAo-91" value="ProviderName" style="ellipse;whiteSpace=wrap;html=1;align=center;" parent="1" vertex="1">
          <mxGeometry x="1120" y="375" width="100" height="40" as="geometry" />
        </mxCell>
        <mxCell id="-DnCc5Ymo5U40kZKFfAo-92" value="BranchLocation" style="ellipse;whiteSpace=wrap;html=1;align=center;" parent="1" vertex="1">
          <mxGeometry x="1280" y="535" width="100" height="40" as="geometry" />
        </mxCell>
        <mxCell id="-DnCc5Ymo5U40kZKFfAo-93" value="" style="endArrow=none;html=1;rounded=0;" parent="1" source="-DnCc5Ymo5U40kZKFfAo-85" target="-DnCc5Ymo5U40kZKFfAo-86" edge="1">
          <mxGeometry width="50" height="50" relative="1" as="geometry">
            <mxPoint x="870" y="660" as="sourcePoint" />
            <mxPoint x="920" y="610" as="targetPoint" />
          </mxGeometry>
        </mxCell>
        <mxCell id="-DnCc5Ymo5U40kZKFfAo-94" value="" style="endArrow=none;html=1;rounded=0;" parent="1" source="-DnCc5Ymo5U40kZKFfAo-85" target="-DnCc5Ymo5U40kZKFfAo-87" edge="1">
          <mxGeometry width="50" height="50" relative="1" as="geometry">
            <mxPoint x="850" y="650" as="sourcePoint" />
            <mxPoint x="900" y="600" as="targetPoint" />
          </mxGeometry>
        </mxCell>
        <mxCell id="-DnCc5Ymo5U40kZKFfAo-96" value="" style="endArrow=none;html=1;rounded=0;" parent="1" source="-DnCc5Ymo5U40kZKFfAo-85" target="-DnCc5Ymo5U40kZKFfAo-88" edge="1">
          <mxGeometry width="50" height="50" relative="1" as="geometry">
            <mxPoint x="810" y="580" as="sourcePoint" />
            <mxPoint x="860" y="530" as="targetPoint" />
          </mxGeometry>
        </mxCell>
        <mxCell id="-DnCc5Ymo5U40kZKFfAo-97" value="" style="endArrow=none;html=1;rounded=0;" parent="1" source="-DnCc5Ymo5U40kZKFfAo-85" target="-DnCc5Ymo5U40kZKFfAo-91" edge="1">
          <mxGeometry width="50" height="50" relative="1" as="geometry">
            <mxPoint x="890" y="570" as="sourcePoint" />
            <mxPoint x="940" y="520" as="targetPoint" />
          </mxGeometry>
        </mxCell>
        <mxCell id="-DnCc5Ymo5U40kZKFfAo-98" value="" style="endArrow=none;html=1;rounded=0;" parent="1" source="-DnCc5Ymo5U40kZKFfAo-85" target="-DnCc5Ymo5U40kZKFfAo-89" edge="1">
          <mxGeometry width="50" height="50" relative="1" as="geometry">
            <mxPoint x="620" y="540" as="sourcePoint" />
            <mxPoint x="670" y="490" as="targetPoint" />
          </mxGeometry>
        </mxCell>
        <mxCell id="-DnCc5Ymo5U40kZKFfAo-99" value="" style="endArrow=none;html=1;rounded=0;" parent="1" source="-DnCc5Ymo5U40kZKFfAo-85" target="-DnCc5Ymo5U40kZKFfAo-90" edge="1">
          <mxGeometry width="50" height="50" relative="1" as="geometry">
            <mxPoint x="1270" y="720" as="sourcePoint" />
            <mxPoint x="1320" y="670" as="targetPoint" />
          </mxGeometry>
        </mxCell>
        <mxCell id="-DnCc5Ymo5U40kZKFfAo-100" value="" style="endArrow=none;html=1;rounded=0;" parent="1" source="-DnCc5Ymo5U40kZKFfAo-85" target="-DnCc5Ymo5U40kZKFfAo-92" edge="1">
          <mxGeometry width="50" height="50" relative="1" as="geometry">
            <mxPoint x="1130" y="700" as="sourcePoint" />
            <mxPoint x="1180" y="650" as="targetPoint" />
          </mxGeometry>
        </mxCell>
        <mxCell id="-DnCc5Ymo5U40kZKFfAo-101" value="Country" style="ellipse;whiteSpace=wrap;html=1;align=center;" parent="1" vertex="1">
          <mxGeometry x="1220" y="395" width="100" height="40" as="geometry" />
        </mxCell>
        <mxCell id="-DnCc5Ymo5U40kZKFfAo-102" value="" style="endArrow=none;html=1;rounded=0;" parent="1" source="-DnCc5Ymo5U40kZKFfAo-85" target="-DnCc5Ymo5U40kZKFfAo-101" edge="1">
          <mxGeometry width="50" height="50" relative="1" as="geometry">
            <mxPoint x="980" y="560" as="sourcePoint" />
            <mxPoint x="1030" y="510" as="targetPoint" />
          </mxGeometry>
        </mxCell>
        <mxCell id="-DnCc5Ymo5U40kZKFfAo-103" value="" style="endArrow=none;html=1;rounded=0;entryX=0.5;entryY=1;entryDx=0;entryDy=0;exitX=0.5;exitY=0;exitDx=0;exitDy=0;" parent="1" source="-DnCc5Ymo5U40kZKFfAo-84" target="-DnCc5Ymo5U40kZKFfAo-85" edge="1">
          <mxGeometry width="50" height="50" relative="1" as="geometry">
            <mxPoint x="1270" y="860" as="sourcePoint" />
            <mxPoint x="1320" y="810" as="targetPoint" />
          </mxGeometry>
        </mxCell>
        <mxCell id="-DnCc5Ymo5U40kZKFfAo-104" value="" style="shape=link;html=1;rounded=0;exitX=0;exitY=0.5;exitDx=0;exitDy=0;entryX=1;entryY=0.5;entryDx=0;entryDy=0;" parent="1" source="-DnCc5Ymo5U40kZKFfAo-84" target="q5qDA-LX7BOF8YgOLXZg-71" edge="1">
          <mxGeometry relative="1" as="geometry">
            <mxPoint x="1000" y="750" as="sourcePoint" />
            <mxPoint x="840" y="750" as="targetPoint" />
          </mxGeometry>
        </mxCell>
        <mxCell id="-DnCc5Ymo5U40kZKFfAo-105" value="" style="resizable=0;html=1;whiteSpace=wrap;align=left;verticalAlign=bottom;" parent="-DnCc5Ymo5U40kZKFfAo-104" connectable="0" vertex="1">
          <mxGeometry x="-1" relative="1" as="geometry" />
        </mxCell>
        <mxCell id="-DnCc5Ymo5U40kZKFfAo-106" value="" style="resizable=0;html=1;whiteSpace=wrap;align=right;verticalAlign=bottom;" parent="-DnCc5Ymo5U40kZKFfAo-104" connectable="0" vertex="1">
          <mxGeometry x="1" relative="1" as="geometry" />
        </mxCell>
        <mxCell id="-DnCc5Ymo5U40kZKFfAo-107" value="M" style="text;strokeColor=none;fillColor=none;spacingLeft=4;spacingRight=4;overflow=hidden;rotatable=0;points=[[0,0.5],[1,0.5]];portConstraint=eastwest;fontSize=12;whiteSpace=wrap;html=1;" parent="1" vertex="1">
          <mxGeometry x="1080" y="715" width="40" height="30" as="geometry" />
        </mxCell>
        <mxCell id="-DnCc5Ymo5U40kZKFfAo-108" value="1" style="text;strokeColor=none;fillColor=none;spacingLeft=4;spacingRight=4;overflow=hidden;rotatable=0;points=[[0,0.5],[1,0.5]];portConstraint=eastwest;fontSize=12;whiteSpace=wrap;html=1;" parent="1" vertex="1">
          <mxGeometry x="1140" y="685" width="40" height="30" as="geometry" />
        </mxCell>
        <mxCell id="-DnCc5Ymo5U40kZKFfAo-109" value="ItemsID" style="ellipse;whiteSpace=wrap;html=1;align=center;fontStyle=4;" parent="1" vertex="1">
          <mxGeometry x="-110" y="170" width="100" height="40" as="geometry" />
        </mxCell>
        <mxCell id="-DnCc5Ymo5U40kZKFfAo-110" value="" style="endArrow=none;html=1;rounded=0;" parent="1" source="-DnCc5Ymo5U40kZKFfAo-109" target="4OtOSzDUsw7pKe0Kpmsl-5" edge="1">
          <mxGeometry width="50" height="50" relative="1" as="geometry">
            <mxPoint x="-60" y="400" as="sourcePoint" />
            <mxPoint x="-10" y="350" as="targetPoint" />
          </mxGeometry>
        </mxCell>
        <mxCell id="-DnCc5Ymo5U40kZKFfAo-118" value="" style="endArrow=none;html=1;rounded=0;entryX=0.301;entryY=-0.026;entryDx=0;entryDy=0;exitX=0.019;exitY=1.012;exitDx=0;exitDy=0;exitPerimeter=0;entryPerimeter=0;" parent="1" source="-DnCc5Ymo5U40kZKFfAo-119" target="4OtOSzDUsw7pKe0Kpmsl-2" edge="1">
          <mxGeometry width="50" height="50" relative="1" as="geometry">
            <mxPoint x="-460" y="370" as="sourcePoint" />
            <mxPoint x="-510" y="310" as="targetPoint" />
            <Array as="points">
              <mxPoint x="-430" y="370" />
              <mxPoint x="-310" y="370" />
            </Array>
          </mxGeometry>
        </mxCell>
        <mxCell id="-DnCc5Ymo5U40kZKFfAo-119" value="" style="shape=requiredInterface;html=1;verticalLabelPosition=bottom;sketch=0;rotation=-90;" parent="1" vertex="1">
          <mxGeometry x="-484.75" y="347" width="17.75" height="29" as="geometry" />
        </mxCell>
        <mxCell id="-DnCc5Ymo5U40kZKFfAo-120" value="" style="endArrow=none;html=1;rounded=0;entryX=0.002;entryY=-0.033;entryDx=0;entryDy=0;entryPerimeter=0;exitX=0;exitY=0.5;exitDx=0;exitDy=0;" parent="1" source="-DnCc5Ymo5U40kZKFfAo-134" target="-DnCc5Ymo5U40kZKFfAo-119" edge="1">
          <mxGeometry width="50" height="50" relative="1" as="geometry">
            <mxPoint x="850" y="-690" as="sourcePoint" />
            <mxPoint x="-500" y="380" as="targetPoint" />
            <Array as="points">
              <mxPoint x="820" y="-690" />
              <mxPoint x="30" y="-690" />
              <mxPoint x="30" y="-350" />
              <mxPoint x="-1050" y="-350" />
              <mxPoint x="-1050" y="50" />
              <mxPoint x="-780" y="50" />
              <mxPoint x="-780" y="280" />
              <mxPoint x="-490" y="280" />
            </Array>
          </mxGeometry>
        </mxCell>
        <mxCell id="-DnCc5Ymo5U40kZKFfAo-121" value="WishListID" style="ellipse;whiteSpace=wrap;html=1;align=center;fontStyle=4;" parent="1" vertex="1">
          <mxGeometry x="105" y="-660" width="100" height="40" as="geometry" />
        </mxCell>
        <mxCell id="-DnCc5Ymo5U40kZKFfAo-122" value="ItemCount" style="ellipse;whiteSpace=wrap;html=1;align=center;" parent="1" vertex="1">
          <mxGeometry x="70" y="-600" width="100" height="40" as="geometry" />
        </mxCell>
        <mxCell id="-DnCc5Ymo5U40kZKFfAo-124" value="LastUpdatedDate" style="ellipse;whiteSpace=wrap;html=1;align=center;" parent="1" vertex="1">
          <mxGeometry x="70" y="-530" width="110" height="40" as="geometry" />
        </mxCell>
        <mxCell id="-DnCc5Ymo5U40kZKFfAo-125" value="Count" style="ellipse;whiteSpace=wrap;html=1;align=center;" parent="1" vertex="1">
          <mxGeometry x="745" y="-520" width="100" height="40" as="geometry" />
        </mxCell>
        <mxCell id="-DnCc5Ymo5U40kZKFfAo-126" value="ListItemID" style="ellipse;whiteSpace=wrap;html=1;align=center;fontStyle=4;" parent="1" vertex="1">
          <mxGeometry x="620" y="-520" width="100" height="40" as="geometry" />
        </mxCell>
        <mxCell id="-DnCc5Ymo5U40kZKFfAo-127" value="Date" style="ellipse;whiteSpace=wrap;html=1;align=center;" parent="1" vertex="1">
          <mxGeometry x="870" y="-520" width="80" height="40" as="geometry" />
        </mxCell>
        <mxCell id="-DnCc5Ymo5U40kZKFfAo-128" value="" style="endArrow=none;html=1;rounded=0;" parent="1" source="-DnCc5Ymo5U40kZKFfAo-126" target="q5qDA-LX7BOF8YgOLXZg-89" edge="1">
          <mxGeometry width="50" height="50" relative="1" as="geometry">
            <mxPoint x="500" y="-420" as="sourcePoint" />
            <mxPoint x="550" y="-470" as="targetPoint" />
          </mxGeometry>
        </mxCell>
        <mxCell id="-DnCc5Ymo5U40kZKFfAo-129" value="" style="endArrow=none;html=1;rounded=0;" parent="1" source="-DnCc5Ymo5U40kZKFfAo-125" target="q5qDA-LX7BOF8YgOLXZg-89" edge="1">
          <mxGeometry width="50" height="50" relative="1" as="geometry">
            <mxPoint x="470" y="-490" as="sourcePoint" />
            <mxPoint x="520" y="-540" as="targetPoint" />
          </mxGeometry>
        </mxCell>
        <mxCell id="-DnCc5Ymo5U40kZKFfAo-130" value="" style="endArrow=none;html=1;rounded=0;" parent="1" source="-DnCc5Ymo5U40kZKFfAo-127" target="q5qDA-LX7BOF8YgOLXZg-89" edge="1">
          <mxGeometry width="50" height="50" relative="1" as="geometry">
            <mxPoint x="770" y="-400" as="sourcePoint" />
            <mxPoint x="820" y="-450" as="targetPoint" />
          </mxGeometry>
        </mxCell>
        <mxCell id="-DnCc5Ymo5U40kZKFfAo-131" value="" style="endArrow=none;html=1;rounded=0;" parent="1" source="q5qDA-LX7BOF8YgOLXZg-81" target="-DnCc5Ymo5U40kZKFfAo-121" edge="1">
          <mxGeometry width="50" height="50" relative="1" as="geometry">
            <mxPoint x="-140" y="-480" as="sourcePoint" />
            <mxPoint x="-90" y="-530" as="targetPoint" />
          </mxGeometry>
        </mxCell>
        <mxCell id="-DnCc5Ymo5U40kZKFfAo-132" value="" style="endArrow=none;html=1;rounded=0;" parent="1" source="q5qDA-LX7BOF8YgOLXZg-81" target="-DnCc5Ymo5U40kZKFfAo-122" edge="1">
          <mxGeometry width="50" height="50" relative="1" as="geometry">
            <mxPoint x="-100" y="-480" as="sourcePoint" />
            <mxPoint x="-50" y="-530" as="targetPoint" />
          </mxGeometry>
        </mxCell>
        <mxCell id="-DnCc5Ymo5U40kZKFfAo-133" value="" style="endArrow=none;html=1;rounded=0;" parent="1" source="-DnCc5Ymo5U40kZKFfAo-124" target="q5qDA-LX7BOF8YgOLXZg-81" edge="1">
          <mxGeometry width="50" height="50" relative="1" as="geometry">
            <mxPoint x="30" y="-350" as="sourcePoint" />
            <mxPoint x="80" y="-400" as="targetPoint" />
          </mxGeometry>
        </mxCell>
        <mxCell id="-DnCc5Ymo5U40kZKFfAo-134" value="Contains" style="shape=rhombus;perimeter=rhombusPerimeter;whiteSpace=wrap;html=1;align=center;" parent="1" vertex="1">
          <mxGeometry x="890" y="-720" width="120" height="60" as="geometry" />
        </mxCell>
        <mxCell id="-DnCc5Ymo5U40kZKFfAo-135" value="" style="shape=link;html=1;rounded=0;entryX=0.5;entryY=1;entryDx=0;entryDy=0;exitX=1;exitY=0.5;exitDx=0;exitDy=0;" parent="1" source="q5qDA-LX7BOF8YgOLXZg-89" target="-DnCc5Ymo5U40kZKFfAo-134" edge="1">
          <mxGeometry relative="1" as="geometry">
            <mxPoint x="690" y="-480" as="sourcePoint" />
            <mxPoint x="820" y="-480" as="targetPoint" />
            <Array as="points">
              <mxPoint x="950" y="-580" />
            </Array>
          </mxGeometry>
        </mxCell>
        <mxCell id="-DnCc5Ymo5U40kZKFfAo-136" value="" style="resizable=0;html=1;whiteSpace=wrap;align=left;verticalAlign=bottom;" parent="-DnCc5Ymo5U40kZKFfAo-135" connectable="0" vertex="1">
          <mxGeometry x="-1" relative="1" as="geometry" />
        </mxCell>
        <mxCell id="-DnCc5Ymo5U40kZKFfAo-137" value="" style="resizable=0;html=1;whiteSpace=wrap;align=right;verticalAlign=bottom;" parent="-DnCc5Ymo5U40kZKFfAo-135" connectable="0" vertex="1">
          <mxGeometry x="1" relative="1" as="geometry" />
        </mxCell>
        <mxCell id="-DnCc5Ymo5U40kZKFfAo-138" value="1" style="text;strokeColor=none;fillColor=none;spacingLeft=4;spacingRight=4;overflow=hidden;rotatable=0;points=[[0,0.5],[1,0.5]];portConstraint=eastwest;fontSize=12;whiteSpace=wrap;html=1;" parent="1" vertex="1">
          <mxGeometry x="870" y="-720" width="40" height="30" as="geometry" />
        </mxCell>
        <mxCell id="-DnCc5Ymo5U40kZKFfAo-139" value="M" style="text;strokeColor=none;fillColor=none;spacingLeft=4;spacingRight=4;overflow=hidden;rotatable=0;points=[[0,0.5],[1,0.5]];portConstraint=eastwest;fontSize=12;whiteSpace=wrap;html=1;" parent="1" vertex="1">
          <mxGeometry x="960" y="-660" width="40" height="30" as="geometry" />
        </mxCell>
        <mxCell id="bVnnk8uwFUQvrrrDJUni-1" value="ReturnItemsID" style="ellipse;whiteSpace=wrap;html=1;align=center;fontStyle=4;" parent="1" vertex="1">
          <mxGeometry x="-1010" y="-190" width="110" height="40" as="geometry" />
        </mxCell>
        <mxCell id="bVnnk8uwFUQvrrrDJUni-4" value="ReturnItems" style="whiteSpace=wrap;html=1;align=center;" parent="1" vertex="1">
          <mxGeometry x="-930" y="-110" width="100" height="40" as="geometry" />
        </mxCell>
        <mxCell id="bVnnk8uwFUQvrrrDJUni-5" value="Contains" style="shape=rhombus;perimeter=rhombusPerimeter;whiteSpace=wrap;html=1;align=center;" parent="1" vertex="1">
          <mxGeometry x="-745" y="-120" width="120" height="60" as="geometry" />
        </mxCell>
        <mxCell id="bVnnk8uwFUQvrrrDJUni-6" value="" style="resizable=0;html=1;whiteSpace=wrap;align=left;verticalAlign=bottom;" parent="1" connectable="0" vertex="1">
          <mxGeometry x="-745" y="-90" as="geometry" />
        </mxCell>
        <mxCell id="bVnnk8uwFUQvrrrDJUni-7" value="1" style="text;strokeColor=none;fillColor=none;spacingLeft=4;spacingRight=4;overflow=hidden;rotatable=0;points=[[0,0.5],[1,0.5]];portConstraint=eastwest;fontSize=12;whiteSpace=wrap;html=1;" parent="1" vertex="1">
          <mxGeometry x="-625" y="-120" width="40" height="30" as="geometry" />
        </mxCell>
        <mxCell id="bVnnk8uwFUQvrrrDJUni-8" value="M" style="text;strokeColor=none;fillColor=none;spacingLeft=4;spacingRight=4;overflow=hidden;rotatable=0;points=[[0,0.5],[1,0.5]];portConstraint=eastwest;fontSize=12;whiteSpace=wrap;html=1;" parent="1" vertex="1">
          <mxGeometry x="-765" y="-120" width="40" height="30" as="geometry" />
        </mxCell>
        <mxCell id="bVnnk8uwFUQvrrrDJUni-13" value="" style="shape=link;html=1;rounded=0;entryX=1;entryY=0.5;entryDx=0;entryDy=0;exitX=0;exitY=0.5;exitDx=0;exitDy=0;" parent="1" source="bVnnk8uwFUQvrrrDJUni-5" target="bVnnk8uwFUQvrrrDJUni-4" edge="1">
          <mxGeometry relative="1" as="geometry">
            <mxPoint x="-459" y="11" as="sourcePoint" />
            <mxPoint x="-560" y="10" as="targetPoint" />
          </mxGeometry>
        </mxCell>
        <mxCell id="bVnnk8uwFUQvrrrDJUni-14" value="" style="resizable=0;html=1;whiteSpace=wrap;align=left;verticalAlign=bottom;" parent="bVnnk8uwFUQvrrrDJUni-13" connectable="0" vertex="1">
          <mxGeometry x="-1" relative="1" as="geometry" />
        </mxCell>
        <mxCell id="bVnnk8uwFUQvrrrDJUni-15" value="" style="resizable=0;html=1;whiteSpace=wrap;align=right;verticalAlign=bottom;" parent="bVnnk8uwFUQvrrrDJUni-13" connectable="0" vertex="1">
          <mxGeometry x="1" relative="1" as="geometry" />
        </mxCell>
        <mxCell id="bVnnk8uwFUQvrrrDJUni-16" value="" style="endArrow=none;html=1;rounded=0;" parent="1" source="bVnnk8uwFUQvrrrDJUni-4" target="bVnnk8uwFUQvrrrDJUni-1" edge="1">
          <mxGeometry width="50" height="50" relative="1" as="geometry">
            <mxPoint x="-960" y="30" as="sourcePoint" />
            <mxPoint x="-910" y="-20" as="targetPoint" />
          </mxGeometry>
        </mxCell>
        <mxCell id="bVnnk8uwFUQvrrrDJUni-20" value="ReturnID" style="ellipse;whiteSpace=wrap;html=1;align=center;fontStyle=4;" parent="1" vertex="1">
          <mxGeometry x="-625" y="-180" width="110" height="40" as="geometry" />
        </mxCell>
        <mxCell id="bVnnk8uwFUQvrrrDJUni-21" value="" style="endArrow=none;html=1;rounded=0;" parent="1" source="q5qDA-LX7BOF8YgOLXZg-53" target="bVnnk8uwFUQvrrrDJUni-20" edge="1">
          <mxGeometry width="50" height="50" relative="1" as="geometry">
            <mxPoint x="-720" y="120" as="sourcePoint" />
            <mxPoint x="-670" y="70" as="targetPoint" />
          </mxGeometry>
        </mxCell>
        <mxCell id="bVnnk8uwFUQvrrrDJUni-23" value="Date" style="ellipse;whiteSpace=wrap;html=1;align=center;" parent="1" vertex="1">
          <mxGeometry x="-525" y="-220" width="100" height="40" as="geometry" />
        </mxCell>
        <mxCell id="bVnnk8uwFUQvrrrDJUni-25" value="Time" style="ellipse;whiteSpace=wrap;html=1;align=center;" parent="1" vertex="1">
          <mxGeometry x="-650" y="-20" width="100" height="40" as="geometry" />
        </mxCell>
        <mxCell id="bVnnk8uwFUQvrrrDJUni-26" value="" style="endArrow=none;html=1;rounded=0;" parent="1" source="bVnnk8uwFUQvrrrDJUni-25" target="q5qDA-LX7BOF8YgOLXZg-53" edge="1">
          <mxGeometry width="50" height="50" relative="1" as="geometry">
            <mxPoint x="-570" y="200" as="sourcePoint" />
            <mxPoint x="-520" y="150" as="targetPoint" />
          </mxGeometry>
        </mxCell>
        <mxCell id="bVnnk8uwFUQvrrrDJUni-27" value="" style="endArrow=none;html=1;rounded=0;" parent="1" source="q5qDA-LX7BOF8YgOLXZg-53" target="bVnnk8uwFUQvrrrDJUni-23" edge="1">
          <mxGeometry width="50" height="50" relative="1" as="geometry">
            <mxPoint x="-740" y="170" as="sourcePoint" />
            <mxPoint x="-690" y="120" as="targetPoint" />
          </mxGeometry>
        </mxCell>
        <mxCell id="bVnnk8uwFUQvrrrDJUni-28" value="Has" style="shape=rhombus;perimeter=rhombusPerimeter;whiteSpace=wrap;html=1;align=center;" parent="1" vertex="1">
          <mxGeometry x="-750" y="40" width="120" height="60" as="geometry" />
        </mxCell>
        <mxCell id="bVnnk8uwFUQvrrrDJUni-30" value="" style="shape=link;html=1;rounded=0;entryX=0.5;entryY=0;entryDx=0;entryDy=0;exitX=0.5;exitY=1;exitDx=0;exitDy=0;" parent="1" source="bVnnk8uwFUQvrrrDJUni-4" target="bVnnk8uwFUQvrrrDJUni-28" edge="1">
          <mxGeometry relative="1" as="geometry">
            <mxPoint x="-880" y="320" as="sourcePoint" />
            <mxPoint x="-675" y="320" as="targetPoint" />
            <Array as="points">
              <mxPoint x="-880" />
              <mxPoint x="-690" />
            </Array>
          </mxGeometry>
        </mxCell>
        <mxCell id="bVnnk8uwFUQvrrrDJUni-31" value="" style="resizable=0;html=1;whiteSpace=wrap;align=left;verticalAlign=bottom;" parent="bVnnk8uwFUQvrrrDJUni-30" connectable="0" vertex="1">
          <mxGeometry x="-1" relative="1" as="geometry" />
        </mxCell>
        <mxCell id="bVnnk8uwFUQvrrrDJUni-32" value="" style="resizable=0;html=1;whiteSpace=wrap;align=right;verticalAlign=bottom;" parent="bVnnk8uwFUQvrrrDJUni-30" connectable="0" vertex="1">
          <mxGeometry x="1" relative="1" as="geometry" />
        </mxCell>
        <mxCell id="bVnnk8uwFUQvrrrDJUni-33" value="" style="endArrow=none;html=1;rounded=0;exitX=0.382;exitY=-0.016;exitDx=0;exitDy=0;exitPerimeter=0;entryX=0.02;entryY=0.99;entryDx=0;entryDy=0;entryPerimeter=0;" parent="1" source="4OtOSzDUsw7pKe0Kpmsl-2" target="q81u531yuf4iEVQlpmik-3" edge="1">
          <mxGeometry width="50" height="50" relative="1" as="geometry">
            <mxPoint x="-610" y="250" as="sourcePoint" />
            <mxPoint x="-460" y="260" as="targetPoint" />
            <Array as="points">
              <mxPoint x="-300" y="300" />
              <mxPoint x="-430" y="300" />
              <mxPoint x="-430" y="260" />
            </Array>
          </mxGeometry>
        </mxCell>
        <mxCell id="bVnnk8uwFUQvrrrDJUni-34" value="1" style="text;html=1;align=center;verticalAlign=middle;whiteSpace=wrap;rounded=0;" parent="1" vertex="1">
          <mxGeometry x="-745" y="20" width="60" height="30" as="geometry" />
        </mxCell>
        <mxCell id="bVnnk8uwFUQvrrrDJUni-35" value="M" style="text;html=1;align=center;verticalAlign=middle;whiteSpace=wrap;rounded=0;" parent="1" vertex="1">
          <mxGeometry x="-655" y="40" width="60" height="30" as="geometry" />
        </mxCell>
        <mxCell id="q81u531yuf4iEVQlpmik-3" value="" style="shape=requiredInterface;html=1;verticalLabelPosition=bottom;sketch=0;rotation=-90;" parent="1" vertex="1">
          <mxGeometry x="-488.745" y="236.995" width="17.75" height="29" as="geometry" />
        </mxCell>
        <mxCell id="q81u531yuf4iEVQlpmik-4" value="" style="endArrow=none;html=1;rounded=0;entryX=0.005;entryY=0.014;entryDx=0;entryDy=0;entryPerimeter=0;exitX=1;exitY=0.5;exitDx=0;exitDy=0;" parent="1" source="bVnnk8uwFUQvrrrDJUni-28" target="q81u531yuf4iEVQlpmik-3" edge="1">
          <mxGeometry width="50" height="50" relative="1" as="geometry">
            <mxPoint x="-610" y="70" as="sourcePoint" />
            <mxPoint x="-630" y="210" as="targetPoint" />
            <Array as="points">
              <mxPoint x="-610" y="70" />
              <mxPoint x="-610" y="260" />
            </Array>
          </mxGeometry>
        </mxCell>
        <mxCell id="2Ip4JvbR_MVgiyL_Z3hc-1" value="" style="endArrow=none;html=1;rounded=0;entryX=0;entryY=0.25;entryDx=0;entryDy=0;exitX=1;exitY=0.5;exitDx=0;exitDy=0;" parent="1" source="eKEfsuG5E0t4RD1mJ9Iq-94" target="4OtOSzDUsw7pKe0Kpmsl-2" edge="1">
          <mxGeometry width="50" height="50" relative="1" as="geometry">
            <mxPoint x="-630" y="580" as="sourcePoint" />
            <mxPoint x="-580" y="530" as="targetPoint" />
            <Array as="points">
              <mxPoint x="-550" y="330" />
              <mxPoint x="-550" y="420" />
            </Array>
          </mxGeometry>
        </mxCell>
        <mxCell id="2Ip4JvbR_MVgiyL_Z3hc-2" value="" style="endArrow=none;html=1;rounded=0;entryX=0;entryY=0.5;entryDx=0;entryDy=0;exitX=1;exitY=0.5;exitDx=0;exitDy=0;" parent="1" source="4OtOSzDUsw7pKe0Kpmsl-2" target="4OtOSzDUsw7pKe0Kpmsl-25" edge="1">
          <mxGeometry width="50" height="50" relative="1" as="geometry">
            <mxPoint x="-240" y="520" as="sourcePoint" />
            <mxPoint x="-190" y="470" as="targetPoint" />
          </mxGeometry>
        </mxCell>
        <mxCell id="2Ip4JvbR_MVgiyL_Z3hc-3" value="" style="endArrow=none;html=1;rounded=0;entryX=0.5;entryY=1;entryDx=0;entryDy=0;exitX=0;exitY=0.5;exitDx=0;exitDy=0;" parent="1" source="4OtOSzDUsw7pKe0Kpmsl-3" target="4OtOSzDUsw7pKe0Kpmsl-16" edge="1">
          <mxGeometry width="50" height="50" relative="1" as="geometry">
            <mxPoint x="-70" y="370" as="sourcePoint" />
            <mxPoint x="-20" y="320" as="targetPoint" />
            <Array as="points">
              <mxPoint x="-20" y="430" />
              <mxPoint x="-20" y="280" />
              <mxPoint x="-170" y="280" />
            </Array>
          </mxGeometry>
        </mxCell>
        <mxCell id="2Ip4JvbR_MVgiyL_Z3hc-4" value="" style="endArrow=none;html=1;rounded=0;entryX=0.5;entryY=1;entryDx=0;entryDy=0;exitX=0.5;exitY=0;exitDx=0;exitDy=0;" parent="1" source="4OtOSzDUsw7pKe0Kpmsl-7" target="4OtOSzDUsw7pKe0Kpmsl-1" edge="1">
          <mxGeometry width="50" height="50" relative="1" as="geometry">
            <mxPoint x="350" y="220" as="sourcePoint" />
            <mxPoint x="400" y="170" as="targetPoint" />
          </mxGeometry>
        </mxCell>
        <mxCell id="2Ip4JvbR_MVgiyL_Z3hc-5" value="" style="endArrow=none;html=1;rounded=0;entryX=0;entryY=0.5;entryDx=0;entryDy=0;exitX=1;exitY=0.5;exitDx=0;exitDy=0;" parent="1" source="bVnnk8uwFUQvrrrDJUni-5" target="q5qDA-LX7BOF8YgOLXZg-53" edge="1">
          <mxGeometry width="50" height="50" relative="1" as="geometry">
            <mxPoint x="-750" y="10" as="sourcePoint" />
            <mxPoint x="-700" y="-40" as="targetPoint" />
          </mxGeometry>
        </mxCell>
        <mxCell id="2Ip4JvbR_MVgiyL_Z3hc-6" value="" style="endArrow=none;html=1;rounded=0;entryX=0.5;entryY=1;entryDx=0;entryDy=0;exitX=0.474;exitY=-0.012;exitDx=0;exitDy=0;exitPerimeter=0;" parent="1" source="q5qDA-LX7BOF8YgOLXZg-35" target="q5qDA-LX7BOF8YgOLXZg-36" edge="1">
          <mxGeometry width="50" height="50" relative="1" as="geometry">
            <mxPoint x="-290" y="1320" as="sourcePoint" />
            <mxPoint x="-240" y="1270" as="targetPoint" />
          </mxGeometry>
        </mxCell>
        <mxCell id="2Ip4JvbR_MVgiyL_Z3hc-7" value="" style="endArrow=none;html=1;rounded=0;entryX=0.5;entryY=1;entryDx=0;entryDy=0;exitX=0.5;exitY=0;exitDx=0;exitDy=0;" parent="1" target="q5qDA-LX7BOF8YgOLXZg-12" edge="1">
          <mxGeometry width="50" height="50" relative="1" as="geometry">
            <mxPoint x="-880" y="1202.5" as="sourcePoint" />
            <mxPoint x="-940" y="1350" as="targetPoint" />
          </mxGeometry>
        </mxCell>
        <mxCell id="2Ip4JvbR_MVgiyL_Z3hc-8" value="" style="shape=link;html=1;rounded=0;exitX=0;exitY=0.5;exitDx=0;exitDy=0;entryX=0.75;entryY=1;entryDx=0;entryDy=0;" parent="1" source="q5qDA-LX7BOF8YgOLXZg-72" target="4OtOSzDUsw7pKe0Kpmsl-3" edge="1">
          <mxGeometry relative="1" as="geometry">
            <mxPoint x="840" y="750" as="sourcePoint" />
            <mxPoint x="680" y="750" as="targetPoint" />
            <Array as="points">
              <mxPoint x="460" y="750" />
              <mxPoint x="460" y="590" />
              <mxPoint x="290" y="590" />
            </Array>
          </mxGeometry>
        </mxCell>
        <mxCell id="2Ip4JvbR_MVgiyL_Z3hc-9" value="" style="resizable=0;html=1;whiteSpace=wrap;align=left;verticalAlign=bottom;" parent="2Ip4JvbR_MVgiyL_Z3hc-8" connectable="0" vertex="1">
          <mxGeometry x="-1" relative="1" as="geometry" />
        </mxCell>
        <mxCell id="2Ip4JvbR_MVgiyL_Z3hc-10" value="" style="resizable=0;html=1;whiteSpace=wrap;align=right;verticalAlign=bottom;" parent="2Ip4JvbR_MVgiyL_Z3hc-8" connectable="0" vertex="1">
          <mxGeometry x="1" relative="1" as="geometry" />
        </mxCell>
        <mxCell id="2Ip4JvbR_MVgiyL_Z3hc-11" value="" style="endArrow=none;html=1;rounded=0;entryX=1;entryY=0.5;entryDx=0;entryDy=0;exitX=0;exitY=0.75;exitDx=0;exitDy=0;" parent="1" source="4OtOSzDUsw7pKe0Kpmsl-2" target="q5qDA-LX7BOF8YgOLXZg-46" edge="1">
          <mxGeometry width="50" height="50" relative="1" as="geometry">
            <mxPoint x="-725" y="440" as="sourcePoint" />
            <mxPoint x="-850" y="440" as="targetPoint" />
          </mxGeometry>
        </mxCell>
        <mxCell id="2Ip4JvbR_MVgiyL_Z3hc-12" value="" style="endArrow=none;html=1;rounded=0;entryX=0;entryY=0.5;entryDx=0;entryDy=0;exitX=1;exitY=0.5;exitDx=0;exitDy=0;" parent="1" source="q5qDA-LX7BOF8YgOLXZg-81" target="q5qDA-LX7BOF8YgOLXZg-90" edge="1">
          <mxGeometry width="50" height="50" relative="1" as="geometry">
            <mxPoint x="390" y="-360" as="sourcePoint" />
            <mxPoint x="440" y="-410" as="targetPoint" />
          </mxGeometry>
        </mxCell>
        <mxCell id="2zhAv6D5Hjx9GP-Wp_ju-1" value="Color" style="whiteSpace=wrap;html=1;align=center;" parent="1" vertex="1">
          <mxGeometry x="-930" y="1205" width="100" height="40" as="geometry" />
        </mxCell>
        <mxCell id="2zhAv6D5Hjx9GP-Wp_ju-2" value="Sub-Categories" style="whiteSpace=wrap;html=1;align=center;" parent="1" vertex="1">
          <mxGeometry x="-165" y="1520" width="125" height="40" as="geometry" />
        </mxCell>
        <mxCell id="2zhAv6D5Hjx9GP-Wp_ju-3" value="Size" style="whiteSpace=wrap;html=1;align=center;" parent="1" vertex="1">
          <mxGeometry x="-330" y="1198" width="100" height="40" as="geometry" />
        </mxCell>
        <mxCell id="2zhAv6D5Hjx9GP-Wp_ju-4" value="" style="endArrow=none;html=1;rounded=0;entryX=0.5;entryY=1;entryDx=0;entryDy=0;exitX=0.5;exitY=0;exitDx=0;exitDy=0;" parent="1" source="2zhAv6D5Hjx9GP-Wp_ju-3" target="q5qDA-LX7BOF8YgOLXZg-3" edge="1">
          <mxGeometry width="50" height="50" relative="1" as="geometry">
            <mxPoint x="-240" y="1200" as="sourcePoint" />
            <mxPoint x="-190" y="1150" as="targetPoint" />
          </mxGeometry>
        </mxCell>
        <mxCell id="2zhAv6D5Hjx9GP-Wp_ju-5" value="FirstName" style="ellipse;whiteSpace=wrap;html=1;align=center;" parent="1" vertex="1">
          <mxGeometry x="340" y="20" width="100" height="40" as="geometry" />
        </mxCell>
        <mxCell id="2zhAv6D5Hjx9GP-Wp_ju-6" value="LastName" style="ellipse;whiteSpace=wrap;html=1;align=center;" parent="1" vertex="1">
          <mxGeometry x="460" y="15" width="100" height="40" as="geometry" />
        </mxCell>
        <mxCell id="2zhAv6D5Hjx9GP-Wp_ju-7" value="City" style="ellipse;whiteSpace=wrap;html=1;align=center;" parent="1" vertex="1">
          <mxGeometry x="390" y="-170" width="100" height="40" as="geometry" />
        </mxCell>
        <mxCell id="2zhAv6D5Hjx9GP-Wp_ju-8" value="" style="endArrow=none;html=1;rounded=0;" parent="1" source="2zhAv6D5Hjx9GP-Wp_ju-5" target="eKEfsuG5E0t4RD1mJ9Iq-6" edge="1">
          <mxGeometry width="50" height="50" relative="1" as="geometry">
            <mxPoint x="450" y="120" as="sourcePoint" />
            <mxPoint x="500" y="70" as="targetPoint" />
          </mxGeometry>
        </mxCell>
        <mxCell id="2zhAv6D5Hjx9GP-Wp_ju-9" value="" style="endArrow=none;html=1;rounded=0;" parent="1" source="2zhAv6D5Hjx9GP-Wp_ju-6" target="eKEfsuG5E0t4RD1mJ9Iq-6" edge="1">
          <mxGeometry width="50" height="50" relative="1" as="geometry">
            <mxPoint x="470" y="120" as="sourcePoint" />
            <mxPoint x="520" y="70" as="targetPoint" />
          </mxGeometry>
        </mxCell>
        <mxCell id="2zhAv6D5Hjx9GP-Wp_ju-10" value="" style="endArrow=none;html=1;rounded=0;" parent="1" source="4OtOSzDUsw7pKe0Kpmsl-1" target="2zhAv6D5Hjx9GP-Wp_ju-7" edge="1">
          <mxGeometry width="50" height="50" relative="1" as="geometry">
            <mxPoint x="310" y="30" as="sourcePoint" />
            <mxPoint x="360" y="-20" as="targetPoint" />
          </mxGeometry>
        </mxCell>
      </root>
    </mxGraphModel>
  </diagram>
  <diagram id="mND_DlcF463DbbRp3vIJ" name="Page-2">
    <mxGraphModel dx="1111" dy="520" grid="1" gridSize="10" guides="1" tooltips="1" connect="1" arrows="1" fold="1" page="1" pageScale="1" pageWidth="850" pageHeight="1100" math="0" shadow="0">
      <root>
        <mxCell id="0" />
        <mxCell id="1" parent="0" />
      </root>
    </mxGraphModel>
  </diagram>
</mxfile>
